<?xml version="1.0" encoding="UTF-8" standalone="no"?>
<!-- Created with Inkscape (http://www.inkscape.org/) -->

<svg
   width="900"
   height="300"
   viewBox="0 0 238.12499 79.374998"
   version="1.1"
   id="svg1"
   inkscape:version="1.4 (e7c3feb100, 2024-10-09)"
   sodipodi:docname="main_menu.svg"
   xmlns:inkscape="http://www.inkscape.org/namespaces/inkscape"
   xmlns:sodipodi="http://sodipodi.sourceforge.net/DTD/sodipodi-0.dtd"
   xmlns="http://www.w3.org/2000/svg"
   xmlns:svg="http://www.w3.org/2000/svg">
  <sodipodi:namedview
     id="namedview1"
     pagecolor="#ffffff"
     bordercolor="#000000"
     borderopacity="0.25"
     inkscape:showpageshadow="2"
     inkscape:pageopacity="0.0"
     inkscape:pagecheckerboard="false"
     inkscape:deskcolor="#d1d1d1"
     inkscape:document-units="px"
     inkscape:zoom="1.4142136"
     inkscape:cx="223.7993"
     inkscape:cy="179.25157"
     inkscape:window-width="1280"
     inkscape:window-height="731"
     inkscape:window-x="0"
     inkscape:window-y="0"
     inkscape:window-maximized="1"
     inkscape:current-layer="layer17"
     showgrid="true">
    <inkscape:grid
       id="grid1"
       units="px"
       originx="0"
       originy="0"
       spacingx="0.26458332"
       spacingy="0.26458333"
       empcolor="#0099e5"
       empopacity="0.30196078"
       color="#6bceff"
       opacity="0.14901961"
       empspacing="16"
       enabled="true"
       visible="true"
       dotted="false" />
  </sodipodi:namedview>
  <defs
     id="defs1" />
  <g
     inkscape:groupmode="layer"
     id="layer15"
     inkscape:label="Start button"
     inkscape:export-filename="start.png"
     inkscape:export-xdpi="96"
     inkscape:export-ydpi="96">
    <path
       style="fill:#800033;stroke-width:0.60767;fill-opacity:1"
       d="m 13.533906,66.003376 2.730226,-1.365112 -4.426299,-4.764882 c 0,0 -1.001894,-0.504154 -2.429025,0.03149 -0.3601772,0.135185 -0.3745788,0.981838 -0.6741286,1.316514 -0.3750415,0.41902 -0.6269784,0.62028 -1.2904549,0.419661 -0.2020002,2.835813 0.2982674,7.939803 0.2982674,7.939803 l 5.6121331,0.151689 -0.151689,3.943658 -4.0953391,0.151689 -0.151689,-2.426867 -2.275187,0.455037 0.455037,3.791981 8.1906781,-0.455037 0.30336,-6.825566 -5.9154916,-0.910075 c 0,0 -0.7288825,-3.777167 0.058164,-4.503617 0.787046,-0.726449 2.046191,0.424348 2.046191,0.424348 z"
       id="path27"
       sodipodi:nodetypes="cccssccccccccccczcc"
       inkscape:label="S" />
    <path
       style="fill:#800033;stroke-width:0.60767;fill-opacity:1"
       d="m 19.502763,60.328418 c 0,0 -1.668471,14.257846 -0.303357,15.319601 1.365112,1.061755 5.915488,-1.213434 5.915488,-1.213434 l 0.151689,-2.881904 -4.550377,1.820151 0.30336,-6.977246 2.881903,-0.758395 -0.455037,-3.185263 -2.426866,1.061755 0.910075,-4.24702 z"
       id="path28"
       inkscape:label="t" />
    <path
       style="fill:#800033;stroke-width:0.60767;fill-opacity:1"
       d="m 48.839382,60.441379 c 0,0 -2.472532,14.8385 -0.766378,15.121164 2.842277,0.470888 6.378509,-1.014998 6.378509,-1.014998 l 0.151689,-2.881903 -4.418085,2.018588 0.104921,-6.844954 2.94805,-0.69225 -0.124308,-2.986825 -2.889888,0.929464 1.042368,-4.710041 z"
       id="path28-2"
       sodipodi:nodetypes="csccccccccc"
       inkscape:label="t" />
    <path
       id="path29"
       style="fill:#800033;stroke-width:0.60767;fill-opacity:1"
       d="m 31.157278,64.444956 c -1.614629,0.0063 -4.619106,2.409093 -4.619106,2.409093 l 0.606716,1.668471 4.095338,-1.365114 v 1.668474 l -4.398697,1.365111 0.122981,4.550288 1.431864,1.061844 6.029117,-1.213435 -0.455039,-8.797394 c 0,0 -1.061755,0.758396 -1.97183,-0.910075 -0.170639,-0.312839 -0.468738,-0.438707 -0.841344,-0.437263 z m 0.11374,5.792793 -0.01597,2.796372 -2.535207,0.598735 0.09352,-2.531789 z"
       sodipodi:nodetypes="ccccccccccscccccc"
       inkscape:label="a" />
    <path
       style="fill:#800033;stroke-width:0.60767;fill-opacity:1"
       d="m 37.439686,65.601836 -0.303359,10.162509 3.185265,-0.606717 0.455036,-6.370527 c 0,0 1.97183,-2.12351 2.881906,-1.668471 0.910075,0.455037 2.578546,-1.516794 2.578546,-1.516794 0,0 -2.730226,-2.426866 -4.550376,-1.061752 -1.820151,1.365112 -1.671893,2.162283 -1.671893,2.162283 l 0.151688,-2.426866 z"
       id="path30"
       sodipodi:nodetypes="ccccscsccc"
       inkscape:label="r" />
  </g>
  <g
     inkscape:groupmode="layer"
     id="layer16"
     inkscape:label="Exit button"
     inkscape:export-filename="exit.png"
     inkscape:export-xdpi="96"
     inkscape:export-ydpi="96">
    <path
       style="fill:#800033;stroke-width:0.264999;fill-opacity:1"
       d="m 64.745973,61.200688 -0.561266,13.657474 c 0,0 6.173927,1.216075 7.483546,0.467722 1.309621,-0.748355 2.057976,-2.806332 2.057976,-2.806332 l -6.735192,0.280633 v -5.425569 l 5.519115,-1.356393 0.04677,-1.964432 -5.519115,1.356394 0.327404,-3.086965 5.472345,-0.982214 0.187087,-1.870887 z"
       id="path31"
       sodipodi:nodetypes="ccscccccccccc"
       inkscape:label="E" />
    <path
       style="fill:#800033;stroke-width:0.264999;fill-opacity:1"
       d="m 74.480205,69.386976 2.315104,2.778125 -2.778125,2.513541 1.719791,1.124479 2.711979,-2.844271 3.042709,2.513542 1.058333,-2.38125 -2.976563,-1.653646 1.852084,-2.315104 -1.984375,-1.653645 -1.5875,2.579687 -1.984375,-2.182812 z"
       id="path32"
       inkscape:label="x" />
    <g
       id="g40"
       inkscape:label="i"
       style="fill:#800033;fill-opacity:1">
      <path
         style="fill:#800033;stroke-width:0.264999;fill-opacity:1"
         d="m 84.666662,68.725517 v 6.945313 l 1.521354,0.06615 0.33073,-7.209895 z"
         id="path33" />
      <path
         style="fill:#800033;stroke-width:0.60767;fill-opacity:1"
         d="m 90.271755,60.400406 c 0,0 -1.668471,14.257846 -0.303357,15.319601 1.365111,1.061755 5.915487,-1.213435 5.915487,-1.213435 l 0.15169,-2.881903 -4.550377,1.820151 0.303359,-6.977246 2.881908,-0.758396 -0.45504,-3.185262 -2.426868,1.061755 0.910078,-4.24702 z"
         id="path28-2-5" />
    </g>
    <path
       style="fill:#800033;stroke-width:0.264999;fill-opacity:1"
       d="m 84.468225,66.410413 0.926042,0.992188 1.653645,-0.859896 -1.455208,-3.241146 z"
       id="path34"
       inkscape:label="t" />
  </g>
  <g
     inkscape:groupmode="layer"
     id="layer17"
     inkscape:label="Title"
     inkscape:export-filename="title.png"
     inkscape:export-xdpi="96"
     inkscape:export-ydpi="96">
    <path
       style="fill:#800033;stroke-width:0.264999;fill-opacity:1"
       d="m 4.5836721,29.747097 -0.093544,4.677217 h 4.3965834 l -0.1870887,12.160763 4.5836722,2.61924 -0.374177,-15.341269 3.554684,0.09354 -0.187089,-2.899873 c 0,0 -0.841899,-0.280633 -1.777342,-1.028989 -0.935443,-0.748355 -9.9156987,-0.280633 -9.9156987,-0.280633 z"
       id="path35"
       inkscape:label="T" />
    <path
       style="fill:#800033;stroke-width:0.264999;fill-opacity:1"
       d="m 18.80241,29.934187 -0.187088,18.61532 h 2.80633 l -0.187089,-6.267471 c 0,0 1.777342,-2.432153 3.180507,-0.841898 1.403165,1.590254 1.028988,7.202913 1.028988,7.202913 0,0 2.525696,0.561266 2.525696,0.09355 0,-0.467723 0.654812,-7.951269 -0.935443,-9.26089 C 25.444058,38.16609 20.95393,39.007989 20.95393,39.007989 l 0.09354,-9.167344 z"
       id="path36"
       inkscape:label="h" />
    <path
       id="path37"
       style="fill:#800033;stroke-width:0.264999;fill-opacity:1"
       inkscape:label="e"
       d="M 34.149852 38.445714 C 33.34285 38.459783 30.109475 38.715835 30.027624 41.908035 C 29.934084 45.556263 29.746841 48.362401 31.430639 48.54949 C 33.114437 48.73658 37.41787 46.585269 37.41787 46.585269 L 37.511404 44.433462 L 33.021239 46.211131 C 33.021239 46.211131 31.805271 45.930081 31.992361 45.275271 C 32.17945 44.620462 33.395376 44.246393 33.395376 44.246393 L 37.41787 42.095104 L 34.33072 38.446748 C 34.33072 38.446748 34.265138 38.443704 34.149852 38.445714 z M 33.337499 40.61354 L 34.461978 41.870311 L 31.749999 43.193228 L 31.816145 41.738019 L 33.337499 40.61354 z " />
    <path
       style="fill:#800033;stroke-width:0.264999;fill-opacity:1"
       d="m 59.681282,32.740516 c 0,0 -3.180506,-4.490129 -9.354434,-3.180508 -6.173924,1.309621 -5.425569,7.857725 -5.612659,11.22532 -0.187089,3.367596 0.748356,7.857723 4.303041,7.857723 3.554685,0 10.289875,-3.180506 10.289875,-3.180506 v -4.677217 c 0,0 -7.109369,4.115951 -8.418991,2.80633 -1.309618,-1.309622 -1.870884,-5.238483 -1.122532,-6.735191 0.748356,-1.496711 1.496711,-4.677217 2.806333,-3.928864 1.309618,0.748356 5.238482,2.245064 5.238482,2.245064 z"
       id="path38"
       inkscape:label="C" />
    <path
       id="path39"
       style="fill:#800033;stroke-width:0.60767;fill-opacity:1"
       d="m 65.768681,36.755834 c -1.614629,0.0063 -4.619106,2.409093 -4.619106,2.409093 l 0.606716,1.668471 4.095338,-1.365114 v 1.668474 l -4.398697,1.365111 0.122981,4.550288 1.431864,1.061844 6.029117,-1.213435 -0.455039,-8.797394 c 0,0 -1.061755,0.758396 -1.97183,-0.910075 -0.170639,-0.312839 -0.468738,-0.438707 -0.841344,-0.437263 z m 0.11374,5.792793 -0.01597,2.796372 -2.535207,0.598735 0.09352,-2.531789 z"
       sodipodi:nodetypes="ccccccccccscccccc"
       inkscape:label="a" />
    <path
       style="fill:#800033;stroke-width:0.264999;fill-opacity:1"
       d="M 71.654957,30.68254 71.467868,46.772166 74.08711,49.01723 73.712931,30.869629 Z"
       id="path40"
       inkscape:label="l" />
    <path
       style="fill:#800033;stroke-width:0.264999;fill-opacity:1"
       d="m 77.419772,30.030876 -0.187089,16.089626 2.619242,2.245064 -0.374179,-18.147601 z"
       id="path40-6"
       inkscape:label="l" />
    <g
       inkscape:groupmode="layer"
       id="layer8"
       inkscape:label="Mask"
       style="display:inline"
       inkscape:export-filename="mask.png"
       inkscape:export-xdpi="58.797859"
       inkscape:export-ydpi="58.797859"
       transform="matrix(3.0210727,0,0,3.0210727,-347.49985,-110.96285)">
      <path
         id="path12"
         style="display:inline;fill:#550022;stroke-width:0.251004"
         d="m 151.16123,50.292476 c 1e-5,2.378422 -1.70378,3.736618 -3.72039,3.736618 -2.01661,0 -3.6514,-1.647815 -3.6514,-3.680496 0,-0.860559 0.62761,-2.321318 0.9149,-2.533479 0.0233,-0.604269 -0.25998,-0.635528 -0.38509,-1.034252 -0.0802,-0.255435 -0.92492,-1.181631 -0.89661,-1.959068 0.3441,0.45034 1.28565,1.239664 1.58228,1.441903 0.5404,0.368435 0.93406,0.547281 1.0494,0.475046 0.0112,-0.5859 0.19345,-1.942339 0.42418,-1.831142 0.2595,0.125066 0.58855,1.760497 0.96239,1.760497 0.4031,0 0.77175,-0.206702 0.92207,-0.558344 0.0621,-0.145273 0.22594,-0.610047 0.22123,-1.085287 -0.004,-0.451948 -0.17758,-0.918771 -0.12038,-0.924209 0.0651,-0.0062 0.86664,1.047946 0.88573,1.500741 0.0196,0.465403 -0.0849,1.182988 -0.0181,1.12978 0.13307,-0.106063 0.61971,-0.463476 0.8773,-0.624254 0.37158,-0.231928 0.75384,-1.183632 0.989,-1.196537 -0.20774,0.159306 -0.0574,1.196393 -0.29826,1.485133 -0.076,0.09108 -0.50252,0.394574 -0.53955,0.814441 -0.0112,0.126505 -0.0374,0.389696 0.10359,0.54657 0.2974,0.330741 0.69776,0.923093 0.69777,2.536339 z"
         sodipodi:nodetypes="ssscscscsssssssscsscss" />
      <path
         style="display:inline;fill:#800033;fill-opacity:1;stroke-width:0.264999;stroke-dasharray:none"
         d="m 146.14493,49.950874 c 0,1.196769 -1.47099,1.728145 -1.47099,1.728145 0,0 2.10873,0.349745 2.58193,-1.254961 0.47319,-1.604706 2.69509,-1.738432 2.69509,-1.738432 0,0 -2.52594,0.08756 -3.24849,-0.03233 -0.72255,-0.119893 -0.93172,-0.370651 -1.67267,-0.601973 0.21768,0.248903 0.76053,1.039316 1.11513,1.899554 z"
         id="path13"
         sodipodi:nodetypes="sccczcss" />
      <ellipse
         style="display:inline;fill:#800033;fill-opacity:1;stroke-width:0.264999;stroke-dasharray:none"
         id="path14"
         cx="145.35327"
         cy="49.824886"
         rx="0.61826509"
         ry="0.62553877" />
      <ellipse
         style="display:inline;fill:#800033;fill-opacity:1;stroke-width:0.309622;stroke-dasharray:none"
         id="path15"
         cx="149.47745"
         cy="50.246765"
         rx="0.9164871"
         ry="0.90193963" />
      <ellipse
         style="display:inline;fill:#550022;fill-opacity:1;stroke-width:0.264999;stroke-dasharray:none"
         id="path16"
         cx="145.45056"
         cy="49.827435"
         rx="0.46803913"
         ry="0.4423227" />
      <ellipse
         style="display:inline;fill:#2b0011;fill-opacity:1;stroke-width:0.52338;stroke-dasharray:none"
         id="path19"
         cx="145.48215"
         cy="49.826054"
         rx="0.34257308"
         ry="0.43977168" />
      <ellipse
         style="display:inline;fill:#2b0011;fill-opacity:1;stroke-width:0.415195;stroke-dasharray:none"
         id="path19-2"
         cx="149.26109"
         cy="50.266281"
         rx="0.16458519"
         ry="0.5760482" />
      <ellipse
         style="display:inline;fill:#550022;fill-opacity:1;stroke-width:0.264999;stroke-dasharray:none"
         id="path17"
         cx="149.30064"
         cy="50.245377"
         rx="0.61719447"
         ry="0.64291096" />
      <ellipse
         style="display:inline;fill:#2b0011;fill-opacity:1;stroke-width:0.684572;stroke-dasharray:none"
         id="path19-7"
         ry="0.61816555"
         rx="0.41694674"
         cy="50.239239"
         cx="149.21428" />
      <path
         style="fill:#2b0011;fill-opacity:1;stroke-width:0.264999;stroke-dasharray:none"
         d="m 151.0486,48.792024 c 0,0 0.36905,1.789974 -0.0873,2.953123 -0.88503,2.255779 -2.95312,2.240303 -2.95312,2.240303 0,0 1.51828,-0.702309 2.22809,-2.388543 0.70982,-1.686234 0.81233,-2.804883 0.81233,-2.804883 z"
         id="path21"
         sodipodi:nodetypes="csczc" />
      <path
         style="fill:#2b0011;fill-opacity:1;stroke-width:0.369651;stroke-dasharray:none"
         d="m 143.69409,45.325826 c 0,0 0.64776,0.523193 0.89234,1.133373 0.24457,0.610179 0.57696,0.317649 0.66704,1.168724 -0.30748,-0.212992 -0.46363,-0.183787 -0.9373,-1.100904 -0.47368,-0.917114 -0.33365,-0.73539 -0.62208,-1.201193 z"
         id="path20-9"
         sodipodi:nodetypes="czczc" />
      <path
         style="display:inline;fill:#2b0011;fill-opacity:1;stroke-width:0.296331;stroke-dasharray:none"
         d="m 144.18217,48.681147 c 0,0 -0.87294,0.925903 -0.14799,2.994269 0.83108,2.371196 3.26254,2.355737 3.26254,2.355737 0,0 -1.80781,-0.540005 -2.69539,-2.226239 -0.8876,-1.686234 -0.41916,-3.123767 -0.41916,-3.123767 z"
         id="path21-2"
         sodipodi:nodetypes="csczc" />
      <path
         style="fill:#2b0011;fill-opacity:1;stroke-width:0.264999;stroke-dasharray:none"
         d="m 146.05884,52.312499 c 0,0 1.23653,0.436422 2.25485,-0.101833 1.01832,-0.538255 1.1347,-0.654635 1.1347,-0.654635 0,0 -0.50916,1.396553 -1.80388,1.469289 -1.29472,0.07274 -1.58567,-0.712821 -1.58567,-0.712821 z"
         id="path18" />
      <path
         style="fill:#2b0011;fill-opacity:1;stroke-width:0.369651;stroke-dasharray:none"
         d="m 147.24521,46.929176 c 0,0 -1.26098,0.606909 -1.34103,1.203531 -0.0802,0.596619 0.76059,1.800148 0.76059,1.800148 0,0 0.84132,-0.879807 1.0622,-1.650476 0.22087,-0.770668 -0.48168,-1.353203 -0.48168,-1.353203 z"
         id="path20"
         sodipodi:nodetypes="ccczcc" />
      <path
         style="display:inline;fill:#2b0011;fill-opacity:1;stroke-width:0.369651;stroke-dasharray:none"
         d="m 150.98898,45.357257 c 0,0 -0.1825,0.812415 -0.62144,1.301775 -0.43893,0.489351 -0.0295,0.657963 -0.75284,1.115384 0.0549,-0.369991 -0.0404,-0.497091 0.57242,-1.327724 0.61279,-0.830639 0.5118,-0.624644 0.80186,-1.089435 z"
         id="path20-9-4"
         sodipodi:nodetypes="czczc" />
    </g>
  </g>
</svg>
