<?xml version="1.0" encoding="UTF-8" standalone="no"?>
<!-- Created with Inkscape (http://www.inkscape.org/) -->

<svg
   width="900"
   height="300"
   viewBox="0 0 238.12499 79.374998"
   version="1.1"
   id="svg1"
   inkscape:version="1.4 (e7c3feb100, 2024-10-09)"
   sodipodi:docname="main_menu.svg"
   xmlns:inkscape="http://www.inkscape.org/namespaces/inkscape"
   xmlns:sodipodi="http://sodipodi.sourceforge.net/DTD/sodipodi-0.dtd"
   xmlns:xlink="http://www.w3.org/1999/xlink"
   xmlns="http://www.w3.org/2000/svg"
   xmlns:svg="http://www.w3.org/2000/svg">
  <sodipodi:namedview
     id="namedview1"
     pagecolor="#ffffff"
     bordercolor="#000000"
     borderopacity="0.25"
     inkscape:showpageshadow="2"
     inkscape:pageopacity="0.0"
     inkscape:pagecheckerboard="false"
     inkscape:deskcolor="#d1d1d1"
     inkscape:document-units="px"
     inkscape:zoom="0.70710678"
     inkscape:cx="262.33662"
     inkscape:cy="30.405592"
     inkscape:window-width="1280"
     inkscape:window-height="731"
     inkscape:window-x="0"
     inkscape:window-y="0"
     inkscape:window-maximized="1"
     inkscape:current-layer="layer25"
     showgrid="true">
    <inkscape:grid
       id="grid1"
       units="px"
       originx="0"
       originy="0"
       spacingx="0.26458332"
       spacingy="0.26458333"
       empcolor="#0099e5"
       empopacity="0.30196078"
       color="#6bceff"
       opacity="0.14901961"
       empspacing="16"
       enabled="true"
       visible="true"
       dotted="false" />
  </sodipodi:namedview>
  <defs
     id="defs1">
    <linearGradient
       id="linearGradient218"
       inkscape:collect="always">
      <stop
         style="stop-color:#00191f;stop-opacity:1;"
         offset="0"
         id="stop216" />
      <stop
         style="stop-color:#00191f;stop-opacity:1;"
         offset="0.66562766"
         id="stop217" />
      <stop
         style="stop-color:#004559;stop-opacity:1;"
         offset="1"
         id="stop218" />
    </linearGradient>
    <linearGradient
       id="linearGradient213"
       inkscape:collect="always">
      <stop
         style="stop-color:#00191f;stop-opacity:1;"
         offset="0"
         id="stop213" />
      <stop
         style="stop-color:#00191f;stop-opacity:1;"
         offset="0.66562766"
         id="stop215" />
      <stop
         style="stop-color:#280000;stop-opacity:1;"
         offset="1"
         id="stop214" />
    </linearGradient>
    <linearGradient
       inkscape:collect="always"
       xlink:href="#linearGradient213"
       id="linearGradient214"
       x1="118.11242"
       y1="3.9870031"
       x2="123.50478"
       y2="66.100433"
       gradientUnits="userSpaceOnUse" />
    <linearGradient
       inkscape:collect="always"
       xlink:href="#linearGradient218"
       id="linearGradient215"
       gradientUnits="userSpaceOnUse"
       x1="118.11242"
       y1="3.9870031"
       x2="123.50478"
       y2="66.100433" />
  </defs>
  <g
     inkscape:groupmode="layer"
     id="layer15"
     inkscape:label="Start button"
     inkscape:export-filename="start.png"
     inkscape:export-xdpi="96"
     inkscape:export-ydpi="96"
     style="display:none"
     sodipodi:insensitive="true">
    <path
       style="fill:#800033;fill-opacity:1;stroke-width:0.60767"
       d="m 13.533906,66.003376 2.730226,-1.365112 -4.426299,-4.764882 c 0,0 -1.001894,-0.504154 -2.429025,0.03149 -0.3601772,0.135185 -0.3745788,0.981838 -0.6741286,1.316514 -0.3750415,0.41902 -0.6269784,0.62028 -1.2904549,0.419661 -0.2020002,2.835813 0.2982674,7.939803 0.2982674,7.939803 l 5.6121331,0.151689 -0.151689,3.943658 -4.0953391,0.151689 -0.151689,-2.426867 -2.275187,0.455037 0.455037,3.791981 8.1906781,-0.455037 0.30336,-6.825566 -5.9154916,-0.910075 c 0,0 -0.7288825,-3.777167 0.058164,-4.503617 0.7870456,-0.726449 2.0461906,0.424348 2.0461906,0.424348 z"
       id="path27"
       sodipodi:nodetypes="cccssccccccccccczcc"
       inkscape:label="S" />
    <path
       style="fill:#800033;fill-opacity:1;stroke-width:0.60767"
       d="m 19.502763,60.328418 c 0,0 -1.668471,14.257846 -0.303357,15.319601 1.365112,1.061755 5.915488,-1.213434 5.915488,-1.213434 l 0.151689,-2.881904 -4.550377,1.820151 0.30336,-6.977246 2.881903,-0.758395 -0.455037,-3.185263 -2.426866,1.061755 0.910075,-4.24702 z"
       id="path28"
       inkscape:label="t" />
    <path
       style="fill:#800033;fill-opacity:1;stroke-width:0.60767"
       d="m 48.839382,60.441379 c 0,0 -2.472532,14.8385 -0.766378,15.121164 2.842277,0.470888 6.378509,-1.014998 6.378509,-1.014998 l 0.151689,-2.881903 -4.418085,2.018588 0.104921,-6.844954 2.94805,-0.69225 -0.124308,-2.986825 -2.889888,0.929464 1.042368,-4.710041 z"
       id="path28-2"
       sodipodi:nodetypes="csccccccccc"
       inkscape:label="t" />
    <path
       id="path29"
       style="fill:#800033;fill-opacity:1;stroke-width:0.60767"
       d="m 31.157278,64.444956 c -1.614629,0.0063 -4.619106,2.409093 -4.619106,2.409093 l 0.606716,1.668471 4.095338,-1.365114 v 1.668474 l -4.398697,1.365111 0.122981,4.550288 1.431864,1.061844 6.029117,-1.213435 -0.455039,-8.797394 c 0,0 -1.061755,0.758396 -1.97183,-0.910075 -0.170639,-0.312839 -0.468738,-0.438707 -0.841344,-0.437263 z m 0.11374,5.792793 -0.01597,2.796372 -2.535207,0.598735 0.09352,-2.531789 z"
       sodipodi:nodetypes="ccccccccccscccccc"
       inkscape:label="a" />
    <path
       style="fill:#800033;fill-opacity:1;stroke-width:0.60767"
       d="m 37.439686,65.601836 -0.303359,10.162509 3.185265,-0.606717 0.455036,-6.370527 c 0,0 1.97183,-2.12351 2.881906,-1.668471 0.910075,0.455037 2.578546,-1.516794 2.578546,-1.516794 0,0 -2.730226,-2.426866 -4.550376,-1.061752 -1.820151,1.365112 -1.671893,2.162283 -1.671893,2.162283 l 0.151688,-2.426866 z"
       id="path30"
       sodipodi:nodetypes="ccccscsccc"
       inkscape:label="r" />
  </g>
  <g
     inkscape:groupmode="layer"
     id="layer18"
     inkscape:label="Game over screen visual"
     inkscape:export-filename="Art/UndefinedStudi0_art/gameoverscreen.png"
     inkscape:export-xdpi="96"
     inkscape:export-ydpi="96"
     style="display:none">
    <rect
       style="fill:url(#linearGradient214);stroke-width:0.264999"
       id="rect41"
       width="126.99999"
       height="71.4375"
       x="51.883034"
       y="3.4409208" />
    <g
       inkscape:groupmode="layer"
       id="layer19"
       inkscape:label="Broken mask"
       style="display:none"
       sodipodi:insensitive="true">
      <g
         inkscape:groupmode="layer"
         id="g114"
         inkscape:label="Mask"
         style="display:none"
         inkscape:export-filename="mask.png"
         inkscape:export-xdpi="58.797859"
         inkscape:export-ydpi="58.797859"
         transform="matrix(3.0210727,0,0,3.0210727,-347.49985,-110.96285)"
         sodipodi:insensitive="true">
        <path
           id="path102"
           style="display:inline;fill:#550022;stroke-width:0.251004"
           d="m 151.16123,50.292476 c 1e-5,2.378422 -1.70378,3.736618 -3.72039,3.736618 -2.01661,0 -3.6514,-1.647815 -3.6514,-3.680496 0,-0.860559 0.62761,-2.321318 0.9149,-2.533479 0.0233,-0.604269 -0.25998,-0.635528 -0.38509,-1.034252 -0.0802,-0.255435 -0.92492,-1.181631 -0.89661,-1.959068 0.3441,0.45034 1.28565,1.239664 1.58228,1.441903 0.5404,0.368435 0.93406,0.547281 1.0494,0.475046 0.0112,-0.5859 0.19345,-1.942339 0.42418,-1.831142 0.2595,0.125066 0.58855,1.760497 0.96239,1.760497 0.4031,0 0.77175,-0.206702 0.92207,-0.558344 0.0621,-0.145273 0.22594,-0.610047 0.22123,-1.085287 -0.004,-0.451948 -0.17758,-0.918771 -0.12038,-0.924209 0.0651,-0.0062 0.86664,1.047946 0.88573,1.500741 0.0196,0.465403 -0.0849,1.182988 -0.0181,1.12978 0.13307,-0.106063 0.61971,-0.463476 0.8773,-0.624254 0.37158,-0.231928 0.75384,-1.183632 0.989,-1.196537 -0.20774,0.159306 -0.0574,1.196393 -0.29826,1.485133 -0.076,0.09108 -0.50252,0.394574 -0.53955,0.814441 -0.0112,0.126505 -0.0374,0.389696 0.10359,0.54657 0.2974,0.330741 0.69776,0.923093 0.69777,2.536339 z"
           sodipodi:nodetypes="ssscscscsssssssscsscss" />
        <path
           style="display:inline;fill:#800033;fill-opacity:1;stroke-width:0.264999;stroke-dasharray:none"
           d="m 146.14493,49.950874 c 0,1.196769 -1.47099,1.728145 -1.47099,1.728145 0,0 2.10873,0.349745 2.58193,-1.254961 0.47319,-1.604706 2.69509,-1.738432 2.69509,-1.738432 0,0 -2.52594,0.08756 -3.24849,-0.03233 -0.72255,-0.119893 -0.93172,-0.370651 -1.67267,-0.601973 0.21768,0.248903 0.76053,1.039316 1.11513,1.899554 z"
           id="path103"
           sodipodi:nodetypes="sccczcss" />
        <ellipse
           style="display:inline;fill:#800033;fill-opacity:1;stroke-width:0.264999;stroke-dasharray:none"
           id="ellipse103"
           cx="145.35327"
           cy="49.824886"
           rx="0.61826509"
           ry="0.62553877" />
        <ellipse
           style="display:inline;fill:#800033;fill-opacity:1;stroke-width:0.309622;stroke-dasharray:none"
           id="ellipse104"
           cx="149.47745"
           cy="50.246765"
           rx="0.9164871"
           ry="0.90193963" />
        <ellipse
           style="display:inline;fill:#550022;fill-opacity:1;stroke-width:0.264999;stroke-dasharray:none"
           id="ellipse105"
           cx="145.45056"
           cy="49.827435"
           rx="0.46803913"
           ry="0.4423227" />
        <ellipse
           style="display:inline;fill:#2b0011;fill-opacity:1;stroke-width:0.52338;stroke-dasharray:none"
           id="ellipse106"
           cx="145.48215"
           cy="49.826054"
           rx="0.34257308"
           ry="0.43977168" />
        <ellipse
           style="display:inline;fill:#2b0011;fill-opacity:1;stroke-width:0.415195;stroke-dasharray:none"
           id="ellipse107"
           cx="149.26109"
           cy="50.266281"
           rx="0.16458519"
           ry="0.5760482" />
        <ellipse
           style="display:inline;fill:#550022;fill-opacity:1;stroke-width:0.264999;stroke-dasharray:none"
           id="ellipse108"
           cx="149.30064"
           cy="50.245377"
           rx="0.61719447"
           ry="0.64291096" />
        <ellipse
           style="display:inline;fill:#2b0011;fill-opacity:1;stroke-width:0.684572;stroke-dasharray:none"
           id="ellipse109"
           ry="0.61816555"
           rx="0.41694674"
           cy="50.239239"
           cx="149.21428" />
        <path
           style="fill:#2b0011;fill-opacity:1;stroke-width:0.264999;stroke-dasharray:none"
           d="m 151.0486,48.792024 c 0,0 0.36905,1.789974 -0.0873,2.953123 -0.88503,2.255779 -2.95312,2.240303 -2.95312,2.240303 0,0 1.51828,-0.702309 2.22809,-2.388543 0.70982,-1.686234 0.81233,-2.804883 0.81233,-2.804883 z"
           id="path109"
           sodipodi:nodetypes="csczc" />
        <path
           style="fill:#2b0011;fill-opacity:1;stroke-width:0.369651;stroke-dasharray:none"
           d="m 143.69409,45.325826 c 0,0 0.64776,0.523193 0.89234,1.133373 0.24457,0.610179 0.57696,0.317649 0.66704,1.168724 -0.30748,-0.212992 -0.46363,-0.183787 -0.9373,-1.100904 -0.47368,-0.917114 -0.33365,-0.73539 -0.62208,-1.201193 z"
           id="path110"
           sodipodi:nodetypes="czczc" />
        <path
           style="display:inline;fill:#2b0011;fill-opacity:1;stroke-width:0.296331;stroke-dasharray:none"
           d="m 144.18217,48.681147 c 0,0 -0.87294,0.925903 -0.14799,2.994269 0.83108,2.371196 3.26254,2.355737 3.26254,2.355737 0,0 -1.80781,-0.540005 -2.69539,-2.226239 -0.8876,-1.686234 -0.41916,-3.123767 -0.41916,-3.123767 z"
           id="path111"
           sodipodi:nodetypes="csczc" />
        <path
           style="fill:#2b0011;fill-opacity:1;stroke-width:0.264999;stroke-dasharray:none"
           d="m 146.05884,52.312499 c 0,0 1.23653,0.436422 2.25485,-0.101833 1.01832,-0.538255 1.1347,-0.654635 1.1347,-0.654635 0,0 -0.50916,1.396553 -1.80388,1.469289 -1.29472,0.07274 -1.58567,-0.712821 -1.58567,-0.712821 z"
           id="path112" />
        <path
           style="fill:#2b0011;fill-opacity:1;stroke-width:0.369651;stroke-dasharray:none"
           d="m 147.24521,46.929176 c 0,0 -1.26098,0.606909 -1.34103,1.203531 -0.0802,0.596619 0.76059,1.800148 0.76059,1.800148 0,0 0.84132,-0.879807 1.0622,-1.650476 0.22087,-0.770668 -0.48168,-1.353203 -0.48168,-1.353203 z"
           id="path113"
           sodipodi:nodetypes="ccczcc" />
        <path
           style="display:inline;fill:#2b0011;fill-opacity:1;stroke-width:0.369651;stroke-dasharray:none"
           d="m 150.98898,45.357257 c 0,0 -0.1825,0.812415 -0.62144,1.301775 -0.43893,0.489351 -0.0295,0.657963 -0.75284,1.115384 0.0549,-0.369991 -0.0404,-0.497091 0.57242,-1.327724 0.61279,-0.830639 0.5118,-0.624644 0.80186,-1.089435 z"
           id="path114"
           sodipodi:nodetypes="czczc" />
      </g>
      <g
         inkscape:groupmode="layer"
         id="layer20"
         inkscape:label="FragBot"
         style="display:inline"
         transform="translate(-30.495452,14.780004)">
        <path
           d="m 103.42883,39.154715 a 0.49722382,1.7402835 0 0 0 -0.49713,1.740462 0.49722382,1.7402835 0 0 0 0.49713,1.740462 0.49722382,1.7402835 0 0 0 0.49712,-1.740462 0.49722382,1.7402835 0 0 0 -0.49712,-1.740462 z"
           style="display:inline;fill:#2b0011;stroke-width:0.684572"
           id="path100" />
        <path
           d="m 103.28723,38.945942 a 1.2596264,1.8675231 0 0 0 -1.25935,1.867586 1.2596264,1.8675231 0 0 0 1.25935,1.867586 1.2596264,1.8675231 0 0 0 1.25987,-1.867586 1.2596264,1.8675231 0 0 0 -1.25987,-1.867586 z m 0.1416,0.208773 a 0.49722382,1.7402835 0 0 1 0.49712,1.740462 0.49722382,1.7402835 0 0 1 -0.49712,1.740462 0.49722382,1.7402835 0 0 1 -0.49713,-1.740462 0.49722382,1.7402835 0 0 1 0.49713,-1.740462 z"
           style="display:inline;fill:#2b0011;stroke-width:0.684572"
           id="path99" />
        <path
           d="m 103.5482,38.889615 a 1.8645894,1.9422807 0 0 0 -1.86449,1.942517 1.8645894,1.9422807 0 0 0 1.86449,1.942 1.8645894,1.9422807 0 0 0 1.86448,-1.942 1.8645894,1.9422807 0 0 0 -1.86448,-1.942517 z m -0.26097,0.05633 a 1.2596264,1.8675231 0 0 1 1.25987,1.867586 1.2596264,1.8675231 0 0 1 -1.25987,1.867586 1.2596264,1.8675231 0 0 1 -1.25935,-1.867586 1.2596264,1.8675231 0 0 1 1.25935,-1.867586 z"
           style="display:inline;fill:#550022;stroke-width:0.264999"
           id="path98" />
        <path
           d="m 108.77527,36.839094 c -0.11896,0.887966 -0.60697,3.815619 -2.40037,8.075992 -2.14439,5.094236 -6.731373,7.216097 -6.731373,7.216097 0,0 0.101392,-0.0044 0.181901,-0.0078 5.226952,-0.766105 9.343642,-4.723955 9.343612,-11.14919 h 5.2e-4 c -1e-5,-1.737762 -0.15568,-3.07761 -0.39429,-4.135148 z"
           style="fill:#2b0011;stroke-width:0.264999"
           id="path90" />
        <path
           d="m 108.77527,36.839094 c 0.23861,1.057538 0.39428,2.397386 0.39429,4.135148 h -5.2e-4 c 3e-5,6.425235 -4.11666,10.383085 -9.343612,11.14919 0.889212,-0.03655 6.288272,-0.511227 8.740032,-6.760311 1.37867,-3.513958 0.26355,-8.921936 0.26355,-8.921936 0,0 -0.0305,0.224111 -0.0537,0.397909 z"
           style="fill:#2b0011;stroke-width:0.264999"
           id="path89" />
        <path
           d="m 93.090439,51.136929 -0.02842,0.05581 c 2.334681,1.078581 4.432287,1.07642 4.432287,1.07642 0,0 -0.04677,-0.0158 -0.05581,-0.0186 -1.554703,-0.06872 -3.025443,-0.461653 -4.348055,-1.113627 z"
           style="display:inline;fill:#2b0011;stroke-width:0.296331"
           id="path85" />
        <path
           d="m 93.554493,50.234141 -0.464054,0.902788 c 1.322612,0.651974 2.793352,1.044908 4.348055,1.113627 -0.172201,-0.05345 -1.907345,-0.616794 -3.884001,-2.016415 z"
           style="display:inline;fill:#2b0011;stroke-width:0.296331"
           id="path83" />
        <path
           d="m 95.016936,47.390904 -0.403593,0.784448 c 0.698126,0.587342 1.905701,1.169049 3.931543,1.055233 3.911444,-0.219741 5.449794,-4.439005 5.449794,-4.439005 0,0 -0.35179,0.351549 -3.42821,1.977657 -1.966886,1.039638 -4.192261,0.875177 -5.549534,0.621667 z"
           style="fill:#2b0011;stroke-width:0.264999"
           id="path81" />
        <path
           d="m 103.33167,38.228156 -1.73632,1.484147 a 2.7687742,2.7248252 0 0 0 -0.28164,1.123963 2.7687742,2.7248252 0 0 0 2.76882,2.724898 2.7687742,2.7248252 0 0 0 2.76883,-2.724898 2.7687742,2.7248252 0 0 0 -2.76883,-2.724898 2.7687742,2.7248252 0 0 0 -0.75086,0.116788 z m 0.21653,0.661459 a 1.8645894,1.9422807 0 0 1 1.86448,1.942517 1.8645894,1.9422807 0 0 1 -1.86448,1.942 1.8645894,1.9422807 0 0 1 -1.86449,-1.942 1.8645894,1.9422807 0 0 1 1.86449,-1.942517 z"
           style="display:inline;fill:#800033;stroke-width:0.309622"
           id="path79" />
        <path
           d="m 104.5254,36.148697 0.0114,0.09612 c 0.58465,-0.09679 0.97617,-0.125057 0.97617,-0.125057 0,0 -0.47565,0.01477 -0.98754,0.02894 z"
           style="display:inline;fill:#800033;stroke-width:0.264999"
           id="path75" />
        <path
           d="m 106.9268,29.810582 -0.57722,-0.61805 c -0.0512,0.06911 -0.068,0.08881 -0.12299,0.163298 -1.85138,2.509403 -1.56376,2.893355 -1.72961,4.011124 2.18526,-1.381902 0.94824,-1.890938 2.27428,-3.369303 0.0538,-0.06001 0.10426,-0.124076 0.15554,-0.187069 z"
           style="display:inline;fill:#2b0011;stroke-width:0.369651"
           id="path71" />
        <path
           d="m 107.35417,30.268436 -0.42737,-0.457854 c -0.0513,0.06299 -0.10172,0.127063 -0.15554,0.187069 -1.32604,1.478365 -0.089,1.987401 -2.27428,3.369303 0.16585,-1.117769 -0.12177,-1.501721 1.72961,-4.011124 0.055,-0.07449 0.0717,-0.09419 0.12299,-0.163298 l -0.5209,-0.557072 c -0.35517,0.23922 -0.71928,0.494052 -1.09347,0.764812 l -0.53641,5.457031 2.68253,1.454691 -2.40916,-0.596346 0.0532,0.433049 c 0.51189,-0.01417 0.98754,-0.02894 0.98754,-0.02894 0,0 -0.39152,0.02827 -0.97617,0.125057 l 0.10593,0.862996 -1.31103,1.120345 a 2.7687742,2.7248252 0 0 1 0.75086,-0.116788 2.7687742,2.7248252 0 0 1 2.76883,2.724898 2.7687742,2.7248252 0 0 1 -2.76883,2.724898 2.7687742,2.7248252 0 0 1 -2.76882,-2.724898 2.7687742,2.7248252 0 0 1 0.28164,-1.123963 l -0.863,0.737423 -1.385446,3.731038 1.585946,1.76475 -2.362643,-0.686779 0.166399,-3.102653 -1.832963,1.566312 -1.886707,3.66851 c 1.357273,0.25351 3.582648,0.417971 5.549534,-0.621667 3.07642,-1.626108 3.42821,-1.977657 3.42821,-1.977657 0,0 -1.53835,4.219264 -5.449794,4.439005 -2.025842,0.113816 -3.233417,-0.467891 -3.931543,-1.055233 l -1.05885,2.058789 c 1.976656,1.399621 3.7118,1.962964 3.884001,2.016415 0.16296,0.0072 0.326204,0.0124 0.490926,0.0124 0.644514,0 1.277623,-0.04889 1.896008,-0.139526 -0.08051,0.0033 -0.181901,0.0078 -0.181901,0.0078 0,0 4.586983,-2.121861 6.731373,-7.216097 1.7934,-4.260373 2.28141,-7.188026 2.40037,-8.075992 -0.43061,-1.908438 -1.136,-2.884509 -1.71411,-3.527433 -0.42594,-0.473928 -0.34648,-1.268881 -0.31264,-1.651062 0.0473,-0.535869 0.30694,-1.003663 0.60565,-1.392163 z"
           style="display:inline;fill:#550022;stroke-width:0.251004"
           id="path69" />
      </g>
      <g
         inkscape:groupmode="layer"
         id="layer21"
         inkscape:label="FragTop"
         transform="translate(-1.964431,24.415071)">
        <path
           d="m 86.844825,41.766441 c -0.425093,-3.878631 1.240235,-5.660119 1.240235,-5.660119 0,0 -0.04684,0.170407 -0.102836,0.410828 0.576833,-1.478039 1.252614,-2.711585 1.68,-3.027206 0.07039,-1.82554 -0.78527,-1.919782 -1.163236,-3.124357 -0.24229,-0.771687 -2.793888,-3.569808 -2.708362,-5.918501 1.039551,1.36051 3.883929,3.745344 4.78007,4.356323 0.934396,0.637054 1.715698,1.078365 2.285132,1.305346 l -0.995288,-2.887162 -8.512659,-4.303096 1.590601,18.802469 z"
           style="display:inline;stroke-width:0.264999"
           id="path122" />
        <path
           d="m 92.101869,40.870889 a 1.4139802,1.336289 0 0 1 -0.102836,0.01912 1.0349382,1.3285822 0 0 0 0.01344,0.0036 1.0349382,1.3285822 0 0 0 0.0894,-0.02274 z"
           style="display:inline;fill:#2b0011;stroke-width:0.52338"
           id="path140" />
        <path
           d="m 92.235194,38.271564 a 1.0349382,1.3285822 0 0 1 0.811837,1.293462 1.0349382,1.3285822 0 0 1 -0.945162,1.305863 1.4139802,1.336289 0 0 0 1.228865,-1.301213 1.4139802,1.336289 0 0 0 -1.09554,-1.298112 z"
           style="display:inline;fill:#550022;stroke-width:0.264999"
           id="path139" />
        <path
           d="m 92.001616,38.239525 a 1.0349382,1.3285822 0 0 0 -1.024226,1.325501 1.0349382,1.3285822 0 0 0 1.021643,1.324983 1.4139802,1.336289 0 0 0 0.102836,-0.01912 1.0349382,1.3285822 0 0 0 0.945162,-1.305863 1.0349382,1.3285822 0 0 0 -0.811837,-1.293462 1.4139802,1.336289 0 0 0 -0.233578,-0.03204 z"
           style="display:inline;fill:#2b0011;stroke-width:0.52338"
           id="path138" />
        <path
           d="m 92.001616,38.239525 a 1.4139802,1.336289 0 0 1 0.233578,0.03204 1.0349382,1.3285822 0 0 0 -0.222726,-0.03462 1.0349382,1.3285822 0 0 0 -0.01085,0.0026 z"
           style="display:inline;fill:#2b0011;stroke-width:0.52338"
           id="path137" />
        <path
           d="m 91.916867,38.233324 a 1.4139802,1.336289 0 0 0 -1.413867,1.336352 1.4139802,1.336289 0 0 0 1.413867,1.335836 1.4139802,1.336289 0 0 0 0.08217,-0.0155 1.0349382,1.3285822 0 0 1 -1.021643,-1.324983 1.0349382,1.3285822 0 0 1 1.024226,-1.325501 1.4139802,1.336289 0 0 0 -0.08475,-0.0062 z"
           style="display:inline;fill:#550022;stroke-width:0.264999"
           id="path136" />
        <path
           d="m 91.622828,37.672118 a 1.8678238,1.8897981 0 0 0 -1.867586,1.889807 1.8678238,1.8897981 0 0 0 1.867586,1.889807 1.8678238,1.8897981 0 0 0 1.868103,-1.889807 1.8678238,1.8897981 0 0 0 -1.868103,-1.889807 z m 0.294039,0.561206 a 1.4139802,1.336289 0 0 1 0.08475,0.0062 1.0349382,1.3285822 0 0 1 0.01085,-0.0026 1.0349382,1.3285822 0 0 1 0.222726,0.03462 1.4139802,1.336289 0 0 1 1.09554,1.298112 1.4139802,1.336289 0 0 1 -1.228865,1.301213 1.0349382,1.3285822 0 0 1 -0.0894,0.02274 1.0349382,1.3285822 0 0 1 -0.01344,-0.0036 1.4139802,1.336289 0 0 1 -0.08217,0.0155 1.4139802,1.336289 0 0 1 -1.413867,-1.335836 1.4139802,1.336289 0 0 1 1.413867,-1.336352 z"
           style="display:inline;fill:#800033;stroke-width:0.264999"
           id="path134" />
        <path
           d="m 86.610214,25.96999 c 0.871368,1.407225 0.44845,0.858051 1.879472,3.628719 1.430992,2.770677 1.902949,2.682431 2.831869,3.325895 -0.272139,-2.571159 -1.276517,-1.687655 -2.015381,-3.53105 -0.738894,-1.843398 -2.69596,-3.423564 -2.69596,-3.423564 z"
           style="display:inline;fill:#2b0011;stroke-width:0.369651"
           id="path132" />
        <path
           d="m 95.076881,39.103555 c -0.58404,-0.937022 -1.49011,-2.534136 -1.738395,-3.801318 -0.759557,-0.337423 -1.498046,-0.725625 -2.692859,-1.098641 0.657627,0.751954 2.297514,3.139826 3.368786,5.738667 0,0.248415 -0.02242,0.486669 -0.0615,0.716236 l 1.18184,-1.276408 z"
           style="display:inline;fill:#800033;stroke-width:0.264999"
           id="path131" />
        <path
           d="m 94.36788,35.702212 c -0.371613,-0.119962 -0.70384,-0.255352 -1.029394,-0.399975 0.248285,1.267182 1.154355,2.864296 1.738395,3.801318 z"
           style="display:inline;fill:#2b0011;stroke-width:0.369651"
           id="path129" />
        <path
           d="m 93.868169,33.304426 c -0.307465,0.371149 -0.528959,0.758449 -0.580843,1.14515 -0.03394,0.252482 -0.0095,0.543257 0.05116,0.852661 0.325554,0.144623 0.657781,0.280013 1.029394,0.399975 z"
           style="display:inline;fill:#2b0011;stroke-width:0.369651"
           id="path127" />
        <path
           d="m 87.982224,36.51715 c -0.594584,1.52352 -1.083655,3.306988 -1.083655,4.62659 0,0.209483 0.0073,0.417627 0.0186,0.624252 l 1.081588,0.02584 c -0.525802,-2.533501 -0.200703,-4.486035 -0.01654,-5.27668 z"
           style="display:inline;fill:#2b0011;stroke-width:0.296331"
           id="path125" />
        <path
           d="m 87.982224,36.51715 c -0.184167,0.790645 -0.509266,2.743179 0.01654,5.27668 l 4.797123,0.114205 1.157035,-1.249536 c 0.03907,-0.229567 0.0615,-0.467821 0.0615,-0.716236 -1.071272,-2.598841 -2.711159,-4.986713 -3.368786,-5.738667 1.194813,0.373016 1.933302,0.761218 2.692859,1.098641 -0.06062,-0.309404 -0.0851,-0.600179 -0.05116,-0.852661 0.05188,-0.386701 0.273378,-0.774001 0.580843,-1.14515 l -0.136942,-0.657324 -0.875399,-2.538347 c -0.569434,-0.226981 -1.350736,-0.668292 -2.285132,-1.305346 -0.896141,-0.610979 -3.740519,-2.995813 -4.78007,-4.356323 -0.08553,2.348693 2.466072,5.146814 2.708362,5.918501 0.377966,1.204575 1.233627,1.298817 1.163236,3.124357 -0.427386,0.315621 -1.103167,1.549167 -1.68,3.027206 z m 3.640604,1.154968 a 1.8678238,1.8897981 0 0 1 1.868103,1.889807 1.8678238,1.8897981 0 0 1 -1.868103,1.889807 1.8678238,1.8897981 0 0 1 -1.867586,-1.889807 1.8678238,1.8897981 0 0 1 1.867586,-1.889807 z"
           style="display:inline;fill:#550022;stroke-width:0.251004"
           id="path124" />
        <path
           d="m 86.844825,41.766441 0.07235,0.0016 c -0.01134,-0.206625 -0.0186,-0.414769 -0.0186,-0.624252 0,-1.319602 0.489071,-3.10307 1.083655,-4.62659 0.056,-0.240421 0.102836,-0.410828 0.102836,-0.410828 0,0 -1.665328,1.781488 -1.240235,5.660119 z"
           style="display:inline;fill:#2b0011;stroke-width:0.296331"
           id="path123" />
      </g>
      <g
         inkscape:groupmode="layer"
         id="layer22"
         inkscape:label="FragmentsSmall">
        <path
           style="display:inline;fill:#800033;fill-opacity:1;stroke-width:0.379369"
           d="m 99.344078,59.882188 c 0,0 6.428012,1.205249 8.704592,-2.14267 2.27657,-3.347916 3.58227,-4.41925 3.58227,-4.41925 l -0.63344,4.331858 -1.03853,0.401 -0.64213,-0.594125 0.61101,-0.894696 -1.03836,0.775306 0.64386,0.9118 -1.28914,0.997009 1.9768,-0.90018 0.59621,0.53679 -0.22414,1.532823 c 0,0 -3.88358,2.812252 -7.36542,2.008751 -3.481832,-0.8035 -3.883582,-2.544416 -3.883582,-2.544416 z"
           id="path144"
           sodipodi:nodetypes="cscccccccccccsc" />
        <path
           style="fill:#550022;fill-opacity:1;stroke-width:0.264999"
           d="m 99.284891,65.219788 1.521349,2.050521 1.85209,-0.661458 v -2.116667 l -1.05834,1.256771 z"
           id="path145" />
        <path
           style="fill:#550022;fill-opacity:1;stroke-width:0.264999"
           d="m 108.01614,65.550518 -1.85208,1.587499 1.45521,1.5875 3.77031,-0.595312 -2.97656,-1.058333 z"
           id="path146" />
        <path
           style="fill:#550022;fill-opacity:1;stroke-width:0.264999"
           d="m 95.845308,68.593226 1.058333,-2.711979 1.256771,1.719791 -0.661459,1.521354 z"
           id="path147" />
        <path
           style="fill:#550022;fill-opacity:1;stroke-width:0.264999"
           d="m 100.88756,70.01793 2.75956,0.09355 -1.07576,0.841899 z"
           id="path148" />
        <path
           style="fill:#550022;fill-opacity:1;stroke-width:0.264999"
           d="m 92.655658,70.672742 5.752978,-0.420949 -1.169305,0.608036 -1.449938,0.514495 -0.748352,-0.654811 -0.327406,1.028988 -0.701583,-0.888672 -1.028988,0.467722 z"
           id="path149" />
        <path
           style="fill:#550022;fill-opacity:1;stroke-width:0.264999"
           d="m 101.77623,68.380906 1.96443,1.543481 -0.14031,-0.841899 z"
           id="path150" />
        <path
           style="fill:#550022;fill-opacity:1;stroke-width:0.264999"
           d="m 107.15503,69.830843 c 0.18709,0 3.32082,0.09354 3.32082,0.09354 l -1.02898,0.982215 z"
           id="path151" />
      </g>
    </g>
    <g
       inkscape:groupmode="layer"
       id="g199"
       inkscape:label="Broken mask_large"
       style="display:inline"
       transform="matrix(1.4093983,0,0,1.4093983,-8.4024891,-30.309157)">
      <g
         inkscape:groupmode="layer"
         id="g164"
         inkscape:label="Mask"
         style="display:none"
         inkscape:export-filename="mask.png"
         inkscape:export-xdpi="58.797859"
         inkscape:export-ydpi="58.797859"
         transform="matrix(3.0210727,0,0,3.0210727,-347.49985,-110.96285)"
         sodipodi:insensitive="true">
        <path
           id="path152"
           style="display:inline;fill:#550022;stroke-width:0.251004"
           d="m 151.16123,50.292476 c 1e-5,2.378422 -1.70378,3.736618 -3.72039,3.736618 -2.01661,0 -3.6514,-1.647815 -3.6514,-3.680496 0,-0.860559 0.62761,-2.321318 0.9149,-2.533479 0.0233,-0.604269 -0.25998,-0.635528 -0.38509,-1.034252 -0.0802,-0.255435 -0.92492,-1.181631 -0.89661,-1.959068 0.3441,0.45034 1.28565,1.239664 1.58228,1.441903 0.5404,0.368435 0.93406,0.547281 1.0494,0.475046 0.0112,-0.5859 0.19345,-1.942339 0.42418,-1.831142 0.2595,0.125066 0.58855,1.760497 0.96239,1.760497 0.4031,0 0.77175,-0.206702 0.92207,-0.558344 0.0621,-0.145273 0.22594,-0.610047 0.22123,-1.085287 -0.004,-0.451948 -0.17758,-0.918771 -0.12038,-0.924209 0.0651,-0.0062 0.86664,1.047946 0.88573,1.500741 0.0196,0.465403 -0.0849,1.182988 -0.0181,1.12978 0.13307,-0.106063 0.61971,-0.463476 0.8773,-0.624254 0.37158,-0.231928 0.75384,-1.183632 0.989,-1.196537 -0.20774,0.159306 -0.0574,1.196393 -0.29826,1.485133 -0.076,0.09108 -0.50252,0.394574 -0.53955,0.814441 -0.0112,0.126505 -0.0374,0.389696 0.10359,0.54657 0.2974,0.330741 0.69776,0.923093 0.69777,2.536339 z"
           sodipodi:nodetypes="ssscscscsssssssscsscss" />
        <path
           style="display:inline;fill:#800033;fill-opacity:1;stroke-width:0.264999;stroke-dasharray:none"
           d="m 146.14493,49.950874 c 0,1.196769 -1.47099,1.728145 -1.47099,1.728145 0,0 2.10873,0.349745 2.58193,-1.254961 0.47319,-1.604706 2.69509,-1.738432 2.69509,-1.738432 0,0 -2.52594,0.08756 -3.24849,-0.03233 -0.72255,-0.119893 -0.93172,-0.370651 -1.67267,-0.601973 0.21768,0.248903 0.76053,1.039316 1.11513,1.899554 z"
           id="path153"
           sodipodi:nodetypes="sccczcss" />
        <ellipse
           style="display:inline;fill:#800033;fill-opacity:1;stroke-width:0.264999;stroke-dasharray:none"
           id="ellipse153"
           cx="145.35327"
           cy="49.824886"
           rx="0.61826509"
           ry="0.62553877" />
        <ellipse
           style="display:inline;fill:#800033;fill-opacity:1;stroke-width:0.309622;stroke-dasharray:none"
           id="ellipse154"
           cx="149.47745"
           cy="50.246765"
           rx="0.9164871"
           ry="0.90193963" />
        <ellipse
           style="display:inline;fill:#550022;fill-opacity:1;stroke-width:0.264999;stroke-dasharray:none"
           id="ellipse155"
           cx="145.45056"
           cy="49.827435"
           rx="0.46803913"
           ry="0.4423227" />
        <ellipse
           style="display:inline;fill:#2b0011;fill-opacity:1;stroke-width:0.52338;stroke-dasharray:none"
           id="ellipse156"
           cx="145.48215"
           cy="49.826054"
           rx="0.34257308"
           ry="0.43977168" />
        <ellipse
           style="display:inline;fill:#2b0011;fill-opacity:1;stroke-width:0.415195;stroke-dasharray:none"
           id="ellipse157"
           cx="149.26109"
           cy="50.266281"
           rx="0.16458519"
           ry="0.5760482" />
        <ellipse
           style="display:inline;fill:#550022;fill-opacity:1;stroke-width:0.264999;stroke-dasharray:none"
           id="ellipse158"
           cx="149.30064"
           cy="50.245377"
           rx="0.61719447"
           ry="0.64291096" />
        <ellipse
           style="display:inline;fill:#2b0011;fill-opacity:1;stroke-width:0.684572;stroke-dasharray:none"
           id="ellipse159"
           ry="0.61816555"
           rx="0.41694674"
           cy="50.239239"
           cx="149.21428" />
        <path
           style="fill:#2b0011;fill-opacity:1;stroke-width:0.264999;stroke-dasharray:none"
           d="m 151.0486,48.792024 c 0,0 0.36905,1.789974 -0.0873,2.953123 -0.88503,2.255779 -2.95312,2.240303 -2.95312,2.240303 0,0 1.51828,-0.702309 2.22809,-2.388543 0.70982,-1.686234 0.81233,-2.804883 0.81233,-2.804883 z"
           id="path159"
           sodipodi:nodetypes="csczc" />
        <path
           style="fill:#2b0011;fill-opacity:1;stroke-width:0.369651;stroke-dasharray:none"
           d="m 143.69409,45.325826 c 0,0 0.64776,0.523193 0.89234,1.133373 0.24457,0.610179 0.57696,0.317649 0.66704,1.168724 -0.30748,-0.212992 -0.46363,-0.183787 -0.9373,-1.100904 -0.47368,-0.917114 -0.33365,-0.73539 -0.62208,-1.201193 z"
           id="path160"
           sodipodi:nodetypes="czczc" />
        <path
           style="display:inline;fill:#2b0011;fill-opacity:1;stroke-width:0.296331;stroke-dasharray:none"
           d="m 144.18217,48.681147 c 0,0 -0.87294,0.925903 -0.14799,2.994269 0.83108,2.371196 3.26254,2.355737 3.26254,2.355737 0,0 -1.80781,-0.540005 -2.69539,-2.226239 -0.8876,-1.686234 -0.41916,-3.123767 -0.41916,-3.123767 z"
           id="path161"
           sodipodi:nodetypes="csczc" />
        <path
           style="fill:#2b0011;fill-opacity:1;stroke-width:0.264999;stroke-dasharray:none"
           d="m 146.05884,52.312499 c 0,0 1.23653,0.436422 2.25485,-0.101833 1.01832,-0.538255 1.1347,-0.654635 1.1347,-0.654635 0,0 -0.50916,1.396553 -1.80388,1.469289 -1.29472,0.07274 -1.58567,-0.712821 -1.58567,-0.712821 z"
           id="path162" />
        <path
           style="fill:#2b0011;fill-opacity:1;stroke-width:0.369651;stroke-dasharray:none"
           d="m 147.24521,46.929176 c 0,0 -1.26098,0.606909 -1.34103,1.203531 -0.0802,0.596619 0.76059,1.800148 0.76059,1.800148 0,0 0.84132,-0.879807 1.0622,-1.650476 0.22087,-0.770668 -0.48168,-1.353203 -0.48168,-1.353203 z"
           id="path163"
           sodipodi:nodetypes="ccczcc" />
        <path
           style="display:inline;fill:#2b0011;fill-opacity:1;stroke-width:0.369651;stroke-dasharray:none"
           d="m 150.98898,45.357257 c 0,0 -0.1825,0.812415 -0.62144,1.301775 -0.43893,0.489351 -0.0295,0.657963 -0.75284,1.115384 0.0549,-0.369991 -0.0404,-0.497091 0.57242,-1.327724 0.61279,-0.830639 0.5118,-0.624644 0.80186,-1.089435 z"
           id="path164"
           sodipodi:nodetypes="czczc" />
      </g>
      <g
         inkscape:groupmode="layer"
         id="g198"
         inkscape:label="FragmentsSmall"
         style="display:inline">
        <path
           style="display:inline;fill:#800033;fill-opacity:1;stroke-width:0.379369"
           d="m 105.16364,59.69446 c 0,0 6.42801,1.205249 8.70459,-2.14267 2.27657,-3.347916 3.58227,-4.41925 3.58227,-4.41925 l -0.63344,4.331858 -1.03853,0.401 -0.64213,-0.594125 0.61101,-0.894696 -1.03836,0.775306 0.64386,0.9118 -1.28914,0.997009 1.9768,-0.90018 0.59621,0.53679 -0.22414,1.532823 c 0,0 -3.88358,2.812252 -7.36542,2.008751 -3.48183,-0.8035 -3.88358,-2.544416 -3.88358,-2.544416 z"
           id="path191"
           sodipodi:nodetypes="cscccccccccccsc" />
        <path
           style="fill:#550022;fill-opacity:1;stroke-width:0.264999"
           d="m 105.10445,65.03206 1.52135,2.050521 1.85209,-0.661458 v -2.116667 l -1.05834,1.256771 z"
           id="path192" />
        <path
           style="fill:#550022;fill-opacity:1;stroke-width:0.264999"
           d="m 88.492443,64.048695 -1.85208,1.587499 1.45521,1.5875 3.77031,-0.595312 -2.97656,-1.058333 z"
           id="path193" />
        <path
           style="fill:#550022;fill-opacity:1;stroke-width:0.264999"
           d="m 54.07586,66.340492 1.058333,-2.711979 1.256771,1.719791 -0.661459,1.521354 z"
           id="path194" />
        <path
           style="fill:#550022;fill-opacity:1;stroke-width:0.264999"
           d="m 106.70712,69.830202 2.75956,0.09355 -1.07576,0.841899 z"
           id="path195" />
        <path
           style="fill:#550022;fill-opacity:1;stroke-width:0.264999"
           d="m 84.771088,69.452511 5.752978,-0.420949 -1.169305,0.608036 -1.449938,0.514495 -0.748352,-0.654811 -0.327406,1.028988 -0.701583,-0.888672 -1.028988,0.467722 z"
           id="path196" />
        <path
           style="fill:#550022;fill-opacity:1;stroke-width:0.264999"
           d="m 99.61736,67.629994 1.96443,1.543481 -0.14031,-0.841899 z"
           id="path197" />
        <path
           style="fill:#550022;fill-opacity:1;stroke-width:0.264999"
           d="m 112.97459,69.643115 c 0.18709,0 3.32082,0.09354 3.32082,0.09354 l -1.02898,0.982215 z"
           id="path198" />
      </g>
      <g
         inkscape:groupmode="layer"
         id="g190"
         inkscape:label="FragTop"
         transform="rotate(-74.614924,102.07692,55.613118)">
        <path
           d="m 93.826829,46.432101 a 1.4139802,1.336289 0 0 1 -0.102836,0.01912 1.0349382,1.3285822 0 0 0 0.01344,0.0036 1.0349382,1.3285822 0 0 0 0.0894,-0.02274 z"
           style="display:inline;fill:#2b0011;stroke-width:0.52338"
           id="path178" />
        <path
           d="m 93.960154,43.832776 a 1.0349382,1.3285822 0 0 1 0.811837,1.293462 1.0349382,1.3285822 0 0 1 -0.945162,1.305863 1.4139802,1.336289 0 0 0 1.228865,-1.301213 1.4139802,1.336289 0 0 0 -1.09554,-1.298112 z"
           style="display:inline;fill:#550022;stroke-width:0.264999"
           id="path179" />
        <path
           d="m 93.726576,43.800737 a 1.0349382,1.3285822 0 0 0 -1.024226,1.325501 1.0349382,1.3285822 0 0 0 1.021643,1.324983 1.4139802,1.336289 0 0 0 0.102836,-0.01912 1.0349382,1.3285822 0 0 0 0.945162,-1.305863 1.0349382,1.3285822 0 0 0 -0.811837,-1.293462 1.4139802,1.336289 0 0 0 -0.233578,-0.03204 z"
           style="display:inline;fill:#2b0011;stroke-width:0.52338"
           id="path180" />
        <path
           d="m 93.726576,43.800737 a 1.4139802,1.336289 0 0 1 0.233578,0.03204 1.0349382,1.3285822 0 0 0 -0.222726,-0.03462 1.0349382,1.3285822 0 0 0 -0.01085,0.0026 z"
           style="display:inline;fill:#2b0011;stroke-width:0.52338"
           id="path181" />
        <path
           d="m 93.641827,43.794536 a 1.4139802,1.336289 0 0 0 -1.413867,1.336352 1.4139802,1.336289 0 0 0 1.413867,1.335836 1.4139802,1.336289 0 0 0 0.08217,-0.0155 1.0349382,1.3285822 0 0 1 -1.021643,-1.324983 1.0349382,1.3285822 0 0 1 1.024226,-1.325501 1.4139802,1.336289 0 0 0 -0.08475,-0.0062 z"
           style="display:inline;fill:#550022;stroke-width:0.264999"
           id="path182" />
        <path
           d="m 93.347788,43.23333 a 1.8678238,1.8897981 0 0 0 -1.867586,1.889807 1.8678238,1.8897981 0 0 0 1.867586,1.889807 1.8678238,1.8897981 0 0 0 1.868103,-1.889807 1.8678238,1.8897981 0 0 0 -1.868103,-1.889807 z m 0.294039,0.561206 a 1.4139802,1.336289 0 0 1 0.08475,0.0062 1.0349382,1.3285822 0 0 1 0.01085,-0.0026 1.0349382,1.3285822 0 0 1 0.222726,0.03462 1.4139802,1.336289 0 0 1 1.09554,1.298112 1.4139802,1.336289 0 0 1 -1.228865,1.301213 1.0349382,1.3285822 0 0 1 -0.0894,0.02274 1.0349382,1.3285822 0 0 1 -0.01344,-0.0036 1.4139802,1.336289 0 0 1 -0.08217,0.0155 1.4139802,1.336289 0 0 1 -1.413867,-1.335836 1.4139802,1.336289 0 0 1 1.413867,-1.336352 z"
           style="display:inline;fill:#800033;stroke-width:0.264999"
           id="path183" />
        <path
           d="m 88.335174,31.531202 c 0.871368,1.407225 0.44845,0.858051 1.879472,3.628719 1.430992,2.770677 1.902949,2.682431 2.831869,3.325895 -0.272139,-2.571159 -1.276517,-1.687655 -2.015381,-3.53105 -0.738894,-1.843398 -2.69596,-3.423564 -2.69596,-3.423564 z"
           style="display:inline;fill:#2b0011;stroke-width:0.369651"
           id="path184" />
        <path
           d="m 96.801841,44.664767 c -0.58404,-0.937022 -1.49011,-2.534136 -1.738395,-3.801318 -0.759557,-0.337423 -1.498046,-0.725625 -2.692859,-1.098641 0.657627,0.751954 2.297514,3.139826 3.368786,5.738667 0,0.248415 -0.02242,0.486669 -0.0615,0.716236 l 1.18184,-1.276408 z"
           style="display:inline;fill:#800033;stroke-width:0.264999"
           id="path185" />
        <path
           d="m 96.09284,41.263424 c -0.371613,-0.119962 -0.70384,-0.255352 -1.029394,-0.399975 0.248285,1.267182 1.154355,2.864296 1.738395,3.801318 z"
           style="display:inline;fill:#2b0011;stroke-width:0.369651"
           id="path186" />
        <path
           d="m 95.593129,38.865638 c -0.307465,0.371149 -0.528959,0.758449 -0.580843,1.14515 -0.03394,0.252482 -0.0095,0.543257 0.05116,0.852661 0.325554,0.144623 0.657781,0.280013 1.029394,0.399975 z"
           style="display:inline;fill:#2b0011;stroke-width:0.369651"
           id="path187" />
        <path
           d="m 89.707184,42.078362 c -0.594584,1.52352 -1.083655,3.306988 -1.083655,4.62659 0,0.209483 0.0073,0.417627 0.0186,0.624252 l 1.081588,0.02584 c -0.525802,-2.533501 -0.200703,-4.486035 -0.01654,-5.27668 z"
           style="display:inline;fill:#2b0011;stroke-width:0.296331"
           id="path188" />
        <path
           d="m 89.707184,42.078362 c -0.184167,0.790645 -0.509266,2.743179 0.01654,5.27668 l 4.797123,0.114205 1.157035,-1.249536 c 0.03907,-0.229567 0.0615,-0.467821 0.0615,-0.716236 -1.071272,-2.598841 -2.711159,-4.986713 -3.368786,-5.738667 1.194813,0.373016 1.933302,0.761218 2.692859,1.098641 -0.06062,-0.309404 -0.0851,-0.600179 -0.05116,-0.852661 0.05188,-0.386701 0.273378,-0.774001 0.580843,-1.14515 l -0.136942,-0.657324 -0.875399,-2.538347 c -0.569434,-0.226981 -1.350736,-0.668292 -2.285132,-1.305346 -0.896141,-0.610979 -3.740519,-2.995813 -4.78007,-4.356323 -0.08553,2.348693 2.466072,5.146814 2.708362,5.918501 0.377966,1.204575 1.233627,1.298817 1.163236,3.124357 -0.427386,0.315621 -1.103167,1.549167 -1.68,3.027206 z m 3.640604,1.154968 a 1.8678238,1.8897981 0 0 1 1.868103,1.889807 1.8678238,1.8897981 0 0 1 -1.868103,1.889807 1.8678238,1.8897981 0 0 1 -1.867586,-1.889807 1.8678238,1.8897981 0 0 1 1.867586,-1.889807 z"
           style="display:inline;fill:#550022;stroke-width:0.251004"
           id="path189" />
        <path
           d="m 88.569785,47.327653 0.07235,0.0016 c -0.01134,-0.206625 -0.0186,-0.414769 -0.0186,-0.624252 0,-1.319602 0.489071,-3.10307 1.083655,-4.62659 0.056,-0.240421 0.102836,-0.410828 0.102836,-0.410828 0,0 -1.665328,1.781488 -1.240235,5.660119 z"
           style="display:inline;fill:#2b0011;stroke-width:0.296331"
           id="path190" />
      </g>
      <g
         inkscape:groupmode="layer"
         id="g176"
         inkscape:label="FragBot"
         style="display:inline"
         transform="rotate(-118.78989,90.224312,66.081954)">
        <path
           d="m 100.79066,44.345342 a 0.49722382,1.7402835 0 0 0 -0.49713,1.740462 0.49722382,1.7402835 0 0 0 0.49713,1.740462 0.49722382,1.7402835 0 0 0 0.49712,-1.740462 0.49722382,1.7402835 0 0 0 -0.49712,-1.740462 z"
           style="display:inline;fill:#2b0011;stroke-width:0.684572"
           id="path165" />
        <path
           d="m 100.64906,44.136569 a 1.2596264,1.8675231 0 0 0 -1.259353,1.867586 1.2596264,1.8675231 0 0 0 1.259353,1.867586 1.2596264,1.8675231 0 0 0 1.25987,-1.867586 1.2596264,1.8675231 0 0 0 -1.25987,-1.867586 z m 0.1416,0.208773 a 0.49722382,1.7402835 0 0 1 0.49712,1.740462 0.49722382,1.7402835 0 0 1 -0.49712,1.740462 0.49722382,1.7402835 0 0 1 -0.49713,-1.740462 0.49722382,1.7402835 0 0 1 0.49713,-1.740462 z"
           style="display:inline;fill:#2b0011;stroke-width:0.684572"
           id="path166" />
        <path
           d="m 100.91003,44.080242 a 1.8645894,1.9422807 0 0 0 -1.864493,1.942517 1.8645894,1.9422807 0 0 0 1.864493,1.942 1.8645894,1.9422807 0 0 0 1.86448,-1.942 1.8645894,1.9422807 0 0 0 -1.86448,-1.942517 z m -0.26097,0.05633 a 1.2596264,1.8675231 0 0 1 1.25987,1.867586 1.2596264,1.8675231 0 0 1 -1.25987,1.867586 1.2596264,1.8675231 0 0 1 -1.259353,-1.867586 1.2596264,1.8675231 0 0 1 1.259353,-1.867586 z"
           style="display:inline;fill:#550022;stroke-width:0.264999"
           id="path167" />
        <path
           d="m 106.1371,42.029721 c -0.11896,0.887966 -0.60697,3.815619 -2.40037,8.075992 -2.14439,5.094236 -6.731376,7.216097 -6.731376,7.216097 0,0 0.101392,-0.0044 0.181901,-0.0078 5.226955,-0.766105 9.343645,-4.723955 9.343615,-11.14919 h 5.2e-4 c -1e-5,-1.737762 -0.15568,-3.07761 -0.39429,-4.135148 z"
           style="fill:#2b0011;stroke-width:0.264999"
           id="path168" />
        <path
           d="m 106.1371,42.029721 c 0.23861,1.057538 0.39428,2.397386 0.39429,4.135148 h -5.2e-4 c 3e-5,6.425235 -4.11666,10.383085 -9.343615,11.14919 0.889212,-0.03655 6.288275,-0.511227 8.740035,-6.760311 1.37867,-3.513958 0.26355,-8.921936 0.26355,-8.921936 0,0 -0.0305,0.224111 -0.0537,0.397909 z"
           style="fill:#2b0011;stroke-width:0.264999"
           id="path169" />
        <path
           d="m 90.452266,56.327556 -0.02842,0.05581 c 2.334681,1.078581 4.432287,1.07642 4.432287,1.07642 0,0 -0.04677,-0.0158 -0.05581,-0.0186 -1.554703,-0.06872 -3.025443,-0.461653 -4.348055,-1.113627 z"
           style="display:inline;fill:#2b0011;stroke-width:0.296331"
           id="path170" />
        <path
           d="m 90.91632,55.424768 -0.464054,0.902788 c 1.322612,0.651974 2.793352,1.044908 4.348055,1.113627 -0.172201,-0.05345 -1.907345,-0.616794 -3.884001,-2.016415 z"
           style="display:inline;fill:#2b0011;stroke-width:0.296331"
           id="path171" />
        <path
           d="m 92.378763,52.581531 -0.403593,0.784448 c 0.698126,0.587342 1.905701,1.169049 3.931543,1.055233 3.911444,-0.219741 5.449797,-4.439005 5.449797,-4.439005 0,0 -0.35179,0.351549 -3.428213,1.977657 -1.966886,1.039638 -4.192261,0.875177 -5.549534,0.621667 z"
           style="fill:#2b0011;stroke-width:0.264999"
           id="path172" />
        <path
           d="m 100.6935,43.418783 -1.736323,1.484147 a 2.7687742,2.7248252 0 0 0 -0.28164,1.123963 2.7687742,2.7248252 0 0 0 2.768823,2.724898 2.7687742,2.7248252 0 0 0 2.76883,-2.724898 2.7687742,2.7248252 0 0 0 -2.76883,-2.724898 2.7687742,2.7248252 0 0 0 -0.75086,0.116788 z m 0.21653,0.661459 a 1.8645894,1.9422807 0 0 1 1.86448,1.942517 1.8645894,1.9422807 0 0 1 -1.86448,1.942 1.8645894,1.9422807 0 0 1 -1.864493,-1.942 1.8645894,1.9422807 0 0 1 1.864493,-1.942517 z"
           style="display:inline;fill:#800033;stroke-width:0.309622"
           id="path173" />
        <path
           d="m 101.88723,41.339324 0.0114,0.09612 c 0.58465,-0.09679 0.97617,-0.125057 0.97617,-0.125057 0,0 -0.47565,0.01477 -0.98754,0.02894 z"
           style="display:inline;fill:#800033;stroke-width:0.264999"
           id="path174" />
        <path
           d="m 104.28863,35.001209 -0.57722,-0.61805 c -0.0512,0.06911 -0.068,0.08881 -0.12299,0.163298 -1.85138,2.509403 -1.56376,2.893355 -1.72961,4.011124 2.18526,-1.381902 0.94824,-1.890938 2.27428,-3.369303 0.0538,-0.06001 0.10426,-0.124076 0.15554,-0.187069 z"
           style="display:inline;fill:#2b0011;stroke-width:0.369651"
           id="path175" />
        <path
           d="m 104.716,35.459063 -0.42737,-0.457854 c -0.0513,0.06299 -0.10172,0.127063 -0.15554,0.187069 -1.32604,1.478365 -0.089,1.987401 -2.27428,3.369303 0.16585,-1.117769 -0.12177,-1.501721 1.72961,-4.011124 0.055,-0.07449 0.0717,-0.09419 0.12299,-0.163298 l -0.5209,-0.557072 c -0.35517,0.23922 -0.71928,0.494052 -1.09347,0.764812 l -0.53641,5.457031 2.68253,1.454691 -2.40916,-0.596346 0.0532,0.433049 c 0.51189,-0.01417 0.98754,-0.02894 0.98754,-0.02894 0,0 -0.39152,0.02827 -0.97617,0.125057 l 0.10593,0.862996 -1.31103,1.120345 a 2.7687742,2.7248252 0 0 1 0.75086,-0.116788 2.7687742,2.7248252 0 0 1 2.76883,2.724898 2.7687742,2.7248252 0 0 1 -2.76883,2.724898 2.7687742,2.7248252 0 0 1 -2.768823,-2.724898 2.7687742,2.7248252 0 0 1 0.28164,-1.123963 l -0.863,0.737423 -1.385446,3.731038 1.585946,1.76475 -2.362643,-0.686779 0.166399,-3.102653 -1.832963,1.566312 -1.886707,3.66851 c 1.357273,0.25351 3.582648,0.417971 5.549534,-0.621667 3.076423,-1.626108 3.428213,-1.977657 3.428213,-1.977657 0,0 -1.538353,4.219264 -5.449797,4.439005 -2.025842,0.113816 -3.233417,-0.467891 -3.931543,-1.055233 l -1.05885,2.058789 c 1.976656,1.399621 3.7118,1.962964 3.884001,2.016415 0.16296,0.0072 0.326204,0.0124 0.490926,0.0124 0.644514,0 1.277623,-0.04889 1.896008,-0.139526 -0.08051,0.0033 -0.181901,0.0078 -0.181901,0.0078 0,0 4.586986,-2.121861 6.731376,-7.216097 1.7934,-4.260373 2.28141,-7.188026 2.40037,-8.075992 -0.43061,-1.908438 -1.136,-2.884509 -1.71411,-3.527433 -0.42594,-0.473928 -0.34648,-1.268881 -0.31264,-1.651062 0.0473,-0.535869 0.30694,-1.003663 0.60565,-1.392163 z"
           style="display:inline;fill:#550022;stroke-width:0.251004"
           id="path176" />
      </g>
    </g>
  </g>
  <g
     inkscape:groupmode="layer"
     id="layer24"
     inkscape:label="Game over text"
     inkscape:export-filename="Art/UndefinedStudi0_art/gameovertext.png"
     inkscape:export-xdpi="96"
     inkscape:export-ydpi="96"
     transform="matrix(1.0012096,0,0,1.0012096,-0.09640395,-0.01227334)"
     style="display:none">
    <path
       id="path202"
       style="display:inline;fill:#800033;fill-opacity:1;stroke-width:0.264999"
       inkscape:label="e"
       d="m 133.11975,21.233557 c -0.807,0.01407 -4.04037,0.270121 -4.12222,3.462321 -0.0935,3.648228 -0.28079,6.454366 1.40301,6.641455 1.6838,0.18709 5.98723,-1.964221 5.98723,-1.964221 l 0.0935,-2.151807 -4.49016,1.777669 c 0,0 -1.21597,-0.28105 -1.02888,-0.93586 0.18709,-0.654809 1.40301,-1.028878 1.40301,-1.028878 l 4.0225,-2.151289 -3.08715,-3.648356 c 0,0 -0.0656,-0.003 -0.18087,-0.001 z m -0.81235,2.167826 1.12448,1.256771 -2.71198,1.322917 0.0661,-1.455209 z" />
    <path
       style="display:inline;fill:#800033;fill-opacity:1;stroke-width:0.60767"
       d="m 100.30148,22.571444 -0.303362,10.162509 3.185262,-0.606717 0.45504,-6.370527 c 0,0 1.97183,-2.12351 2.8819,-1.668471 0.91008,0.455037 2.57855,-1.516794 2.57855,-1.516794 0,0 -2.73023,-2.426866 -4.55038,-1.061752 -1.82015,1.365112 -1.67189,2.162283 -1.67189,2.162283 l 0.15169,-2.426866 z"
       id="path203"
       sodipodi:nodetypes="ccccscsccc"
       inkscape:label="r" />
    <path
       id="path204"
       style="fill:#800033;fill-opacity:1;stroke:none;stroke-width:0.264999"
       d="m 91.915317,10.147184 c -3.258705,-0.03581 -11.279932,1.826245 -11.279932,1.826245 l -0.93586,11.786877 c 0,0 0.374673,9.541416 0.187586,10.663948 -0.18709,1.122532 5.986714,-0.561206 5.986714,-0.561206 l -2.058272,-2.432409 1.309998,-1.683619 -2.245341,-0.748274 -0.374138,-5.051371 1.49655,-0.187069 0.93586,-3.367753 0.374137,2.993616 4.490165,-0.935344 c 0,0 2.993117,3.180543 2.80603,4.490165 -0.187089,1.309619 -5.425508,2.244824 -5.425508,2.244824 l -0.561206,2.057756 1.496549,2.058272 c 0,0 9.354426,-1.683815 9.728605,-4.677234 0.374176,-2.99342 -3.554821,-7.296712 -3.554821,-7.296712 l 2.24534,-6.360851 c 0,0 -1.683934,-3.928879 -3.554821,-4.677234 -0.233861,-0.09354 -0.602106,-0.137511 -1.067635,-0.142627 z m -0.990121,3.697449 1.870687,2.057755 -0.561206,2.806547 -8.98025,1.683638 0.187069,-5.051371 z"
       sodipodi:nodetypes="sccscccccccccscccsccsscccccc"
       inkscape:label="B" />
    <path
       style="fill:#800033;fill-opacity:1;stroke:none;stroke-width:0.264999"
       d="m 139.19396,21.889373 v 9.354433 l 2.61924,-0.374177 V 25.06988 c 0,0 1.6838,-2.619241 2.61925,-1.30962 0.93544,1.30962 0.37417,6.735193 0.37417,6.735193 l 3.3676,-0.935445 c 0,0 0.93544,-5.986837 -0.93544,-7.296457 -1.87089,-1.309621 -5.23849,-0.935444 -5.23849,-0.935444 l -0.93544,1.683798 V 20.95393 Z"
       id="path205"
       inkscape:label="n" />
    <path
       id="path206"
       style="fill:#800033;fill-opacity:1;stroke:none;stroke-width:0.264999"
       d="m 112.44016,22.076688 c 0,0 -2.80602,1.309261 -2.9931,3.367236 -0.18709,2.057976 -0.18721,5.613034 1.12241,6.1743 1.30962,0.561265 5.05131,-0.374516 5.61258,-1.684135 0.56126,-1.309621 0.56121,-5.799646 0.56121,-5.799646 0,0 -1.1223,0.935443 -2.24483,0 -1.12253,-0.935443 -2.05827,-2.057755 -2.05827,-2.057755 z m -0.37414,3.554305 2.24534,2.432409 -2.80654,0.935344 z"
       inkscape:label="o" />
    <path
       style="fill:#800033;fill-opacity:1;stroke:none;stroke-width:0.264999"
       d="m 118.98839,12.160763 -0.37418,20.018487 3.55469,3.180506 -0.37418,-8.044812 4.30304,4.490127 1.87088,-3.554684 -4.49012,-3.554684 4.30303,-1.496709 0.18709,-3.180507 -5.79974,2.245064 0.37417,-9.541522 z"
       id="path207"
       inkscape:label="k" />
  </g>
  <g
     inkscape:groupmode="layer"
     id="layer23"
     inkscape:label="Retry"
     transform="translate(68.474451,-2.245064)"
     inkscape:export-filename="Art/UndefinedStudi0_art/retrytext.png"
     inkscape:export-xdpi="96"
     inkscape:export-ydpi="96"
     style="display:none">
    <path
       id="path201"
       style="display:inline;fill:#800033;fill-opacity:1;stroke-width:0.60767"
       d="m 26.394778,47.511623 c -1.614629,0.0063 -4.619106,2.409093 -4.619106,2.409093 l 0.606716,1.668471 4.095338,-1.365114 v 1.668474 l -4.398697,1.365111 0.122981,4.550288 1.431864,1.061844 6.029117,-1.213435 -0.455039,-8.797394 c 0,0 -1.061755,0.758396 -1.97183,-0.910075 -0.170639,-0.312839 -0.468738,-0.438707 -0.841344,-0.437263 z m 0.11374,5.792793 -0.01597,2.796372 -2.535207,0.598735 0.09352,-2.531789 z"
       sodipodi:nodetypes="ccccccccccscccccc"
       inkscape:label="a" />
    <path
       id="path201-7"
       style="display:inline;fill:#800033;fill-opacity:1;stroke-width:0.60767"
       d="m 49.862854,47.095844 c -1.614629,0.0063 -4.619106,2.409093 -4.619106,2.409093 l 0.606716,1.668471 4.095338,-1.365114 v 1.668474 l -4.398697,1.365111 0.122981,4.550288 1.431864,1.061844 6.029117,-1.213435 -0.455039,-8.797394 c 0,0 -1.061755,0.758396 -1.97183,-0.910075 C 50.533559,47.220268 50.23546,47.0944 49.862854,47.095844 Z m 0.11374,5.792793 -0.01597,2.796372 -2.535207,0.598735 0.09352,-2.531789 z"
       sodipodi:nodetypes="ccccccccccscccccc"
       inkscape:label="a" />
    <path
       id="path201-7-8"
       style="display:inline;fill:#800033;fill-opacity:1;stroke-width:0.60767"
       d="m 68.383687,46.566677 c -1.614629,0.0063 -4.619106,2.409093 -4.619106,2.409093 l 0.606716,1.668471 4.095338,-1.365114 v 1.668474 l -4.398697,1.365111 0.122981,4.550288 1.431864,1.061844 6.029117,-1.213435 -0.455039,-8.797393 c 0,0 -1.061755,0.758396 -1.97183,-0.910075 -0.170639,-0.31284 -0.468738,-0.438708 -0.841344,-0.437264 z m 0.11374,5.792793 -0.01597,2.796372 -2.535207,0.598735 0.09352,-2.531789 z"
       sodipodi:nodetypes="ccccccccccscccccc"
       inkscape:label="a" />
    <path
       style="display:inline;fill:#800033;fill-opacity:1;stroke-width:0.264999"
       d="m 20.787533,43.853016 c 0,0 -3.180506,-4.490129 -9.354434,-3.180508 -6.1739237,1.309621 -5.4255687,7.857725 -5.6126587,11.22532 -0.187089,3.367596 0.748356,7.857723 4.3030407,7.857723 3.554685,0 10.289875,-3.180506 10.289875,-3.180506 v -4.677217 c 0,0 -7.109369,4.115951 -8.418991,2.80633 -1.309618,-1.309622 -1.870884,-5.238483 -1.122532,-6.735191 0.748356,-1.496711 1.496711,-4.677217 2.806333,-3.928864 1.309618,0.748356 5.238482,2.245064 5.238482,2.245064 z"
       id="path38-5"
       inkscape:label="C" />
    <path
       style="display:inline;fill:#800033;fill-opacity:1;stroke-width:0.264999"
       d="M 35.142458,40.339831 34.955369,56.429457 37.574611,58.674521 37.200432,40.52692 Z"
       id="path40-2"
       inkscape:label="l" />
    <path
       style="display:inline;fill:#800033;fill-opacity:1;stroke-width:0.264999"
       d="M 31.143337,38.893749 30.956248,54.983375 33.57549,57.228439 33.201311,39.080838 Z"
       id="path40-2-4"
       inkscape:label="l" />
    <g
       id="g210"
       inkscape:label="i"
       style="display:inline;fill:#800033;fill-opacity:1"
       transform="translate(-11.509375,-18.917708)">
      <path
         style="fill:#800033;fill-opacity:1;stroke-width:0.264999"
         d="m 84.666662,68.725517 v 6.945313 l 1.521354,0.06615 0.33073,-7.209895 z"
         id="path209" />
      <path
         style="display:inline;fill:#800033;fill-opacity:1;stroke-width:0.264999"
         d="m 84.468225,66.410413 0.926042,0.992188 1.653645,-0.859896 -1.455208,-3.241146 z"
         id="path210"
         inkscape:label="it" />
    </g>
    <path
       style="fill:#800033;fill-opacity:1;stroke:none;stroke-width:0.264999"
       d="m 76.487712,48.083123 v 9.354433 l 2.61924,-0.374177 V 51.26363 c 0,0 1.6838,-2.619241 2.61925,-1.30962 0.93544,1.30962 0.37417,6.735193 0.37417,6.735193 l 3.3676,-0.935445 c 0,0 0.93544,-5.986837 -0.93544,-7.296457 -1.87089,-1.309621 -5.23849,-0.935444 -5.23849,-0.935444 l -0.93544,1.683798 V 47.14768 Z"
       id="path211"
       inkscape:label="n" />
    <path
       id="path212"
       style="fill:#800033;fill-opacity:1;stroke:none;stroke-width:0.35521"
       d="m 62.624588,47.228123 -2.837223,0.354654 c 0,0 0.110826,1.108289 -0.243824,1.019627 -0.354654,-0.08867 -1.293876,-0.680187 -1.293876,-0.680187 l -4.078507,1.507275 c 0,0 0.08866,4.699149 0.709306,5.497119 0.620642,0.797968 3.901181,0.620643 3.901181,0.620643 l 1.183047,-1.226073 c 0,0 1.418611,4.16717 -0.354654,5.142465 -1.773265,0.975296 -2.150083,-0.598476 -3.302704,-1.485109 -0.997461,0.886632 -2.216581,1.329949 -2.216581,1.329949 0,0 2.571233,2.393906 3.546529,2.393906 0.975294,0 2.948051,0.421151 3.568694,-0.376819 0.620642,-0.797968 2.21658,-3.723855 2.21658,-3.723855 z m -3.975937,2.666849 c 0,0 1.394336,0.872197 1.551605,1.595938 0.125517,0.577609 -0.310321,1.418612 -0.310321,1.418612 0,0 -2.305243,1.108291 -2.659896,-0.04433 -0.117113,-0.380633 -0.388667,-1.509657 -0.195117,-1.871446 0.392552,-0.733772 1.613729,-1.098773 1.613729,-1.098774 z"
       sodipodi:nodetypes="ccsccsccsccsscccscsscc"
       inkscape:label="g" />
  </g>
  <g
     inkscape:groupmode="layer"
     id="layer16"
     inkscape:label="Exit button"
     inkscape:export-filename="exit.png"
     inkscape:export-xdpi="96"
     inkscape:export-ydpi="96"
     style="display:none"
     sodipodi:insensitive="true">
    <path
       style="fill:#800033;fill-opacity:1;stroke-width:0.264999"
       d="m 64.745973,61.200688 -0.561266,13.657474 c 0,0 6.173927,1.216075 7.483546,0.467722 1.309621,-0.748355 2.057976,-2.806332 2.057976,-2.806332 l -6.735192,0.280633 v -5.425569 l 5.519115,-1.356393 0.04677,-1.964432 -5.519115,1.356394 0.327404,-3.086965 5.472345,-0.982214 0.187087,-1.870887 z"
       id="path31"
       sodipodi:nodetypes="ccscccccccccc"
       inkscape:label="E" />
    <path
       style="fill:#800033;fill-opacity:1;stroke-width:0.264999"
       d="m 74.480205,69.386976 2.315104,2.778125 -2.778125,2.513541 1.719791,1.124479 2.711979,-2.844271 3.042709,2.513542 1.058333,-2.38125 -2.976563,-1.653646 1.852084,-2.315104 -1.984375,-1.653645 -1.5875,2.579687 -1.984375,-2.182812 z"
       id="path32"
       inkscape:label="x" />
    <g
       id="g40"
       inkscape:label="i"
       style="display:inline;fill:#800033;fill-opacity:1">
      <path
         style="fill:#800033;fill-opacity:1;stroke-width:0.264999"
         d="m 84.666662,68.725517 v 6.945313 l 1.521354,0.06615 0.33073,-7.209895 z"
         id="path33" />
      <path
         style="display:none;fill:#800033;fill-opacity:1;stroke-width:0.264999"
         d="m 84.468225,66.410413 0.926042,0.992188 1.653645,-0.859896 -1.455208,-3.241146 z"
         id="path34"
         inkscape:label="it" />
    </g>
    <path
       style="display:inline;fill:#800033;fill-opacity:1;stroke-width:0.60767"
       d="m 90.271755,60.400406 c 0,0 -1.668471,14.257846 -0.303357,15.319601 1.365111,1.061755 5.915487,-1.213435 5.915487,-1.213435 l 0.15169,-2.881903 -4.550377,1.820151 0.303359,-6.977246 2.881908,-0.758396 -0.45504,-3.185262 -2.426868,1.061755 0.910078,-4.24702 z"
       id="path28-2-5"
       inkscape:label="t" />
  </g>
  <g
     inkscape:groupmode="layer"
     id="layer25"
     inkscape:label="Credits screen"
     inkscape:export-filename="Art/UndefinedStudi0_art/creditscreen.png"
     inkscape:export-xdpi="96"
     inkscape:export-ydpi="96">
    <rect
       style="display:inline;fill:url(#linearGradient215);stroke-width:0.264999"
       id="rect41-0"
       width="126.99999"
       height="71.4375"
       x="51.883034"
       y="3.4409208" />
    <g
       inkscape:groupmode="layer"
       id="layer26"
       inkscape:label="Masks">
      <g
         inkscape:groupmode="layer"
         id="layer27"
         inkscape:label="Kaonahi"
         transform="translate(0.18708866,7.8577238)">
        <path
           style="fill:#c8b7b7;fill-opacity:1;stroke:none;stroke-width:0.264999"
           d="m 70.813059,23.807032 c 2.619241,0 4.770758,3.274052 4.770758,5.519115 0,2.245064 -1.840283,7.939652 -5.378798,7.904497 -2.946943,-0.02928 -4.536901,-4.349812 -4.723988,-7.530318 -0.187089,-3.180508 2.712787,-5.893294 5.332028,-5.893294 z"
           id="path218"
           sodipodi:nodetypes="zsssz" />
        <path
           style="fill:#000000;fill-opacity:1;stroke:none;stroke-width:0.308165"
           d="m 68.148383,28.20929 c 1.537773,-0.06133 1.344516,0.492531 1.340239,0.767728 -0.0074,0.477973 -0.879721,0.687398 -1.908269,0.406765 C 66.56719,29.107347 67.11794,28.250387 67.11794,28.250387 Z"
           id="path219"
           sodipodi:nodetypes="ssscs" />
        <path
           style="fill:#000000;fill-opacity:1;stroke:none;stroke-width:0.308165"
           d="m 72.947179,28.153329 c -1.537773,-0.06133 -1.344516,0.492531 -1.340239,0.767728 0.0074,0.477973 0.879721,0.687398 1.908269,0.406765 1.013163,-0.276436 0.462413,-1.133396 0.462413,-1.133396 z"
           id="path219-2"
           sodipodi:nodetypes="ssscs" />
        <path
           style="fill:#800080;fill-opacity:1;stroke:none;stroke-width:0.264999"
           d="m 67.818195,30.055506 c 0,0 0.264584,2.331641 0.363802,2.513542 0.09922,0.181901 1.025261,-2.546615 1.025261,-2.546615 z"
           id="path220" />
        <path
           style="fill:#800080;fill-opacity:1;stroke:none;stroke-width:0.264999"
           d="m 72.18382,30.105116 c 0,0 0.826823,2.298567 0.826823,2.182812 0,-0.115755 0.727604,-2.33164 0.727604,-2.33164 z"
           id="path221" />
        <path
           style="fill:#800080;fill-opacity:1;stroke:none;stroke-width:0.264999"
           d="m 67.93395,27.707329 0.644922,-1.008724 0.413412,0.876433 z"
           id="path222" />
        <path
           style="fill:#800080;fill-opacity:1;stroke:none;stroke-width:0.264999"
           d="m 72.564159,26.516704 -0.429948,0.992188 1.207161,-0.08268 z"
           id="path223" />
        <path
           style="fill:#000000;fill-opacity:1;stroke:none;stroke-width:0.264999"
           d="m 69.21577,34.366334 c 0,0 0.479557,0.694531 0.942578,0.760677 0.463021,0.06615 1.124479,-0.79375 1.124479,-0.79375 z"
           id="path224" />
      </g>
      <g
         inkscape:groupmode="layer"
         id="layer28"
         inkscape:label="Daruma"
         transform="translate(56.313688,-9.9156991)">
        <path
           style="fill:#aa0000;fill-opacity:1;stroke:none;stroke-width:0.310688"
           d="m 98.128004,41.814318 -3.18051,7.677084 1.919273,4.112723 6.909373,0.109679 2.30313,-5.264286 -3.29018,-6.580362 z"
           id="path225"
           sodipodi:nodetypes="ccccccc" />
        <path
           style="fill:#ffd5d5;fill-opacity:1;stroke:none;stroke-width:0.264999"
           d="m 97.800597,44.620647 c -0.23386,0.187087 -1.216076,3.648228 -1.216076,3.648228 l 3.227279,0.748355 4.86431,-0.654811 -1.6838,-4.349811 z"
           id="path226" />
        <path
           style="fill:#800000;fill-opacity:1;stroke:none;stroke-width:0.264999"
           d="m 99.531167,47.239887 1.824113,0.04677 c 0,0 -0.8419,1.028988 -1.07576,0.888672 -0.23386,-0.140317 -0.748353,-0.935445 -0.748353,-0.935445 z"
           id="path227" />
        <path
           style="fill:#1a1a1a;fill-opacity:1;stroke:none;stroke-width:0.264999"
           d="m 98.174776,44.433557 1.824114,0.888672 -2.245064,0.04677 z"
           id="path228" />
        <path
           style="fill:#1a1a1a;fill-opacity:1;stroke:none;stroke-width:0.264999"
           d="m 101.30851,44.994823 c 0.65481,-0.514493 1.59025,-0.841899 1.59025,-0.841899 l -0.0468,1.262849 z"
           id="path229" />
        <path
           style="fill:#1a1a1a;fill-opacity:1;stroke:none;stroke-width:0.264999"
           d="m 96.350662,46.585077 c 0,0 1.356391,1.169305 1.96443,0.888672 0.608036,-0.280635 1.403165,-0.982218 1.777338,-0.841901 0.37418,0.140316 0.18709,0.561266 0.18709,0.561266 0,0 -0.374176,-0.46772 -0.561263,-0.23386 -0.18709,0.23386 -0.561266,1.73057 -1.496711,1.590254 -0.935442,-0.140316 -1.870884,-1.964431 -1.870884,-1.964431 z"
           id="path230" />
        <path
           style="fill:#1a1a1a;fill-opacity:1;stroke:none;stroke-width:0.264999"
           d="m 104.47745,46.634521 c 0,0 -1.35639,1.169305 -1.96443,0.888672 -0.60804,-0.280635 -1.40317,-0.982218 -1.77734,-0.841901 -0.37418,0.140316 -0.18709,0.561266 -0.18709,0.561266 0,0 0.37417,-0.46772 0.56126,-0.23386 0.18709,0.23386 0.56127,1.73057 1.49671,1.590254 0.93544,-0.140316 1.87089,-1.964431 1.87089,-1.964431 z"
           id="path230-9" />
        <circle
           style="fill:#1a1a1a;fill-opacity:1;stroke:none;stroke-width:0.264999"
           id="path231"
           cx="98.361862"
           cy="46.304447"
           r="0.56126595" />
        <circle
           style="fill:#1a1a1a;fill-opacity:1;stroke:none;stroke-width:0.264999"
           id="path231-8"
           cx="102.16315"
           cy="46.061337"
           r="0.56126595" />
      </g>
      <g
         inkscape:groupmode="layer"
         id="layer29"
         inkscape:label="Luchador">
        <path
           style="fill:#800000;fill-opacity:1;stroke:none;stroke-width:0.264999"
           d="m 69.447281,9.8427667 c 3.241145,-0.231508 4.762499,1.8520833 4.696353,3.5718753 -0.06615,1.719792 0.727604,7.14375 -0.529167,7.672916 -1.25677,0.529167 -7.143749,0.595313 -7.937499,0 -0.79375,-0.595312 -0.661458,-5.820833 -0.529167,-7.077603 0.132292,-1.256771 1.058334,-3.93568 4.29948,-4.1671883 z"
           id="path232"
           sodipodi:nodetypes="zssssz" />
        <path
           style="fill:#ffe680;fill-opacity:1;stroke:none;stroke-width:0.264999"
           d="m 66.801447,11.69485 c 0,0 1.190625,-0.661458 1.5875,-0.330729 0.396875,0.330729 1.322916,3.638021 1.322916,4.7625 0,1.124479 -0.992187,1.256771 -0.992187,1.256771 0,0 0.198438,-0.79375 -0.06615,-1.322917 -0.264583,-0.529166 -2.050521,-0.396875 -2.050521,-0.396875 0,0 -0.859895,-0.06615 -1.058333,-0.926041 -0.198437,-0.859896 0.06615,-2.248959 0.06615,-2.248959 l 0.529167,0.992188 -0.06615,-1.918229 0.396875,1.124479 z"
           id="path233" />
        <path
           style="fill:#000000;fill-opacity:1;stroke:none;stroke-width:0.264999"
           d="m 66.735301,13.61308 c 0,0 1.124479,-0.132292 1.389063,0.132291 0.264583,0.264584 0.46302,1.389063 0.46302,1.389063 0,0 -1.653645,0.06614 -1.719791,-0.33073 -0.06615,-0.396874 -0.132292,-1.190624 -0.132292,-1.190624 z"
           id="path234" />
        <path
           style="fill:#ffe680;fill-opacity:1;stroke:none;stroke-width:0.264999"
           d="m 72.556135,11.655163 c 0,0 -1.190625,-0.661458 -1.5875,-0.330729 -0.396875,0.330729 -1.322916,3.638021 -1.322916,4.7625 0,1.124479 0.992187,1.256771 0.992187,1.256771 0,0 -0.198438,-0.79375 0.06615,-1.322917 0.264583,-0.529166 2.050521,-0.396875 2.050521,-0.396875 0,0 0.859895,-0.06615 1.058333,-0.926041 0.198437,-0.859896 -0.06615,-2.248959 -0.06615,-2.248959 l -0.529167,0.992188 0.06615,-1.918229 -0.396875,1.124479 z"
           id="path233-2" />
        <path
           style="fill:#000000;fill-opacity:1;stroke:none;stroke-width:0.264999"
           d="m 72.622281,13.573393 c 0,0 -1.124479,-0.132292 -1.389063,0.132291 -0.264583,0.264584 -0.46302,1.389063 -0.46302,1.389063 0,0 1.653645,0.06614 1.719791,-0.33073 0.06615,-0.396874 0.132292,-1.190624 0.132292,-1.190624 z"
           id="path234-7" />
        <path
           style="fill:#ffe680;fill-opacity:1;stroke:none;stroke-width:0.264999"
           d="m 66.801447,20.095371 c 0,0 -0.198063,-2.346748 2.645833,-2.248959 3.04163,0.104588 2.645833,2.447396 2.645833,2.447396 0,0 -1.852083,-0.727603 -2.778124,-0.595312 -0.926042,0.132292 -2.513542,0.396875 -2.513542,0.396875 z"
           id="path235"
           sodipodi:nodetypes="cscsc" />
        <path
           style="fill:#000000;fill-opacity:1;stroke:none;stroke-width:0.264999"
           d="m 68.124364,18.574017 h 2.579687 l -1.190625,0.529166 z"
           id="path236" />
      </g>
      <g
         inkscape:groupmode="layer"
         id="layer30"
         inkscape:label="Chicken">
        <path
           style="fill:#fff6d5;fill-opacity:1;stroke:none;stroke-width:0.197666"
           d="m 70.178493,57.237497 c -2.680492,0.05813 -4.523329,2.441161 -4.942156,4.068602 -0.418827,1.627442 -0.753888,4.184849 -0.753888,4.184849 l 0.837653,-0.232491 0.921419,2.092424 1.759073,-1.278704 0.502591,1.627441 1.424012,-1.627441 2.177899,1.627441 -0.08377,-1.511195 1.675306,1.162458 0.586358,-2.557408 1.591541,1.162458 c 0,0 -0.418826,-3.254882 -1.005183,-4.882323 -0.586358,-1.627441 -2.010369,-3.894235 -4.69086,-3.836111 z"
           id="path237"
           sodipodi:nodetypes="zscccccccccccsz" />
        <path
           style="fill:#ff8080;fill-opacity:1;stroke:none;stroke-width:0.232857"
           d="m 66.923611,60.376133 c 1.078231,-1.059616 5.579797,-1.627441 5.928535,-0.116246 0.348737,1.511196 1.162458,3.138637 -0.581229,3.371129 -1.743687,0.232491 -4.533586,0.348737 -5.463552,-0.116246 -0.929966,-0.464984 -0.961986,-2.079021 0.116246,-3.138637 z"
           id="path238"
           sodipodi:nodetypes="zsssz" />
        <path
           style="fill:#ffff00;fill-opacity:1;stroke:none;stroke-width:0.232857"
           d="m 68.609175,62.759172 1.278703,4.068602 1.336827,-4.475463 c 0,0 -0.871843,-1.104335 -1.627441,-0.697474 -0.755598,0.40686 -0.988089,1.104335 -0.988089,1.104335 z"
           id="path239" />
        <path
           style="fill:#ff0000;fill-opacity:1;stroke:none;stroke-width:0.232857"
           d="m 67.737331,58.051217 c 0,0 -0.116246,-0.05813 -0.116246,-1.162458 0,-1.104334 0.755598,-2.441161 1.162458,-1.743686 0.40686,0.697474 1.162458,1.453072 1.685564,1.104334 0.523106,-0.348737 0.348737,-2.266792 1.162458,-2.092424 0.81372,0.174369 0.40686,2.092424 0.697475,2.150547 0.290614,0.05813 -0.05813,-1.918055 0.581229,-1.569317 0.639351,0.348737 0.116246,3.42925 0.116246,3.42925 0,0 -1.569319,-0.581229 -2.383039,-0.697474 -0.813721,-0.116246 -1.743687,1.336826 -1.743687,1.336826 0,0 0.116245,-0.639352 -0.232492,-0.929966 -0.348738,-0.290615 -0.929966,0.174368 -0.929966,0.174368 z"
           id="path240" />
        <circle
           style="fill:#1a1a1a;fill-opacity:1;stroke:none;stroke-width:0.232857"
           id="path231-1"
           cx="68.172394"
           cy="61.257317"
           r="0.4931891" />
        <circle
           style="fill:#1a1a1a;fill-opacity:1;stroke:none;stroke-width:0.232857"
           id="path231-8-0"
           cx="71.512619"
           cy="61.043694"
           r="0.4931891" />
      </g>
      <g
         inkscape:groupmode="layer"
         id="layer31"
         inkscape:label="Doctor"
         transform="translate(42.656215,-1.3096206)">
        <path
           style="fill:#222b00;fill-opacity:1;stroke:none;stroke-width:0.264999"
           d="m 113.04832,68.427677 c 0,0 0.28064,-3.133733 -0.70158,-4.209495 -0.98222,-1.075758 -0.93544,-3.835317 -0.79513,-4.77076 0.14032,-0.935442 1.21608,-3.320824 3.3676,-3.320824 2.15152,0 3.46114,2.15152 3.41437,2.853102 -0.0468,0.701582 -0.25656,4.277019 -0.53719,4.651195 -0.28064,0.374179 -1.61433,1.709819 -1.61433,3.112984 0,1.403165 -0.0468,2.15152 -0.0468,2.15152 z"
           id="path241"
           sodipodi:nodetypes="csssssscc" />
        <path
           style="fill:#484537;fill-opacity:1;stroke:none;stroke-width:0.264999"
           d="m 113.18864,60.569954 c 0,0 0.98222,7.857723 1.07576,8.606078 0.0935,0.748355 0.60804,1.075761 0.60804,1.075761 l 0.70158,-0.561265 c 0,0 0.56127,-5.378799 0.60804,-6.127155 0.0468,-0.748355 0.51449,-3.086962 0.51449,-3.086962 0,0 -1.21608,-1.216078 -2.0112,-1.122532 -0.79513,0.09354 -1.49671,1.216075 -1.49671,1.216075 z"
           id="path242" />
        <path
           style="fill:#806600;fill-opacity:1;stroke:none;stroke-width:0.264999"
           d="m 112.47536,58.9797 c 0,0 -0.29232,0.900364 -0.12862,1.274543 0.1637,0.374176 0.52619,0.514493 0.70158,0.374176 0.1754,-0.140316 0.94714,-0.900364 0.85359,-1.075759 -0.0935,-0.175397 -0.36248,-0.853593 -0.64311,-0.900363 -0.28064,-0.04677 -0.78344,0.327403 -0.78344,0.327403 z"
           id="path243" />
        <path
           style="fill:#1a1a1a;fill-opacity:1;stroke:none;stroke-width:0.182716"
           d="m 112.59874,59.139125 c 0,0 -0.20155,0.620796 -0.0887,0.878791 0.11287,0.257993 0.36281,0.354741 0.48374,0.257993 0.12094,-0.09675 0.65305,-0.620797 0.58855,-0.741731 -0.0645,-0.120935 -0.24993,-0.588548 -0.44343,-0.620796 -0.19349,-0.03225 -0.54017,0.225743 -0.54017,0.225743 z"
           id="path243-9" />
        <path
           style="fill:#806600;fill-opacity:1;stroke:none;stroke-width:0.264999"
           d="m 117.02571,58.975855 c 0,0 0.29232,0.900364 0.12862,1.274543 -0.1637,0.374176 -0.52618,0.514493 -0.70158,0.374176 -0.1754,-0.140316 -0.94714,-0.900364 -0.85359,-1.075759 0.0935,-0.175397 0.36248,-0.853593 0.64312,-0.900363 0.28063,-0.04677 0.78343,0.327403 0.78343,0.327403 z"
           id="path243-91" />
        <path
           style="fill:#1a1a1a;fill-opacity:1;stroke:none;stroke-width:0.182716"
           d="m 116.90233,59.13528 c 0,0 0.20155,0.620796 0.0887,0.878791 -0.11287,0.257993 -0.3628,0.354741 -0.48374,0.257993 -0.12093,-0.09675 -0.65304,-0.620797 -0.58855,-0.741731 0.0645,-0.120935 0.24994,-0.588548 0.44343,-0.620796 0.1935,-0.03225 0.54017,0.225743 0.54017,0.225743 z"
           id="path243-9-7" />
        <ellipse
           style="fill:#1a1a1a;fill-opacity:1;stroke:none;stroke-width:0.264999"
           id="path244"
           cx="114.13199"
           cy="65.535606"
           rx="0.13229166"
           ry="0.42994788" />
        <ellipse
           style="fill:#1a1a1a;fill-opacity:1;stroke:none;stroke-width:0.264999"
           id="path245"
           cx="114.54539"
           cy="66.891594"
           rx="0.1157552"
           ry="0.29765624" />
        <ellipse
           style="fill:#1a1a1a;fill-opacity:1;stroke:none;stroke-width:0.264999"
           id="path246"
           cx="115.00842"
           cy="64.741859"
           rx="0.14882812"
           ry="0.42994788" />
        <ellipse
           style="fill:#1a1a1a;fill-opacity:1;stroke:none;stroke-width:0.264999"
           id="path247"
           cx="115.62027"
           cy="66.048241"
           rx="0.13229166"
           ry="0.38033852" />
        <ellipse
           style="fill:#1a1a1a;fill-opacity:1;stroke:none;stroke-width:0.264999"
           id="path248"
           cx="115.273"
           cy="67.255402"
           rx="0.18190104"
           ry="0.39687499" />
        <ellipse
           style="fill:#1a1a1a;fill-opacity:1;stroke:none;stroke-width:0.264999"
           id="path249"
           cx="114.36349"
           cy="68.429489"
           rx="0.13229166"
           ry="0.31419268" />
        <ellipse
           style="fill:#1a1a1a;fill-opacity:1;stroke:none;stroke-width:0.264999"
           id="path250"
           cx="115.33915"
           cy="68.627922"
           rx="0.18190104"
           ry="0.38033852" />
        <ellipse
           style="fill:#1a1a1a;fill-opacity:1;stroke:none;stroke-width:0.264999"
           id="path251"
           cx="114.77691"
           cy="69.43821"
           rx="0.21497394"
           ry="0.36380208" />
        <path
           style="fill:#1a1a1a;fill-opacity:1;stroke:none;stroke-width:0.264999"
           d="m 114.11545,59.251755 0.14883,0.644922 0.24804,-0.08268 -0.21497,-0.661459 z"
           id="path252" />
        <path
           style="fill:#1a1a1a;fill-opacity:1;stroke:none;stroke-width:0.264999"
           d="m 115.10764,59.152536 -0.0992,0.529167 0.29765,0.08268 0.14883,-0.562239 z"
           id="path253" />
        <path
           style="fill:#1a1a1a;fill-opacity:1;stroke:none;stroke-width:0.264999"
           d="m 112.85868,61.451104 0.74414,-0.165365 -0.0496,0.297657 -0.66146,0.09922 z"
           id="path254" />
        <path
           style="fill:#1a1a1a;fill-opacity:1;stroke:none;stroke-width:0.264999"
           d="m 116.33133,61.368422 0.44649,0.09922 -0.0827,0.33073 -0.51263,-0.06615 z"
           id="path255" />
        <path
           style="fill:#1a1a1a;fill-opacity:1;stroke:none;stroke-width:0.264999"
           d="m 113.83433,57.135089 0.19844,0.529166 0.26458,-0.132291 z"
           id="path257" />
        <path
           style="fill:#504416;fill-opacity:1;stroke:none;stroke-width:0.264999"
           d="m 115.42183,56.672068 -0.23151,1.455208 c 0,0 1.71979,-0.363802 2.01745,0.165365 0.29765,0.529166 0.52916,1.223697 0.52916,1.223697 l 0.59532,-0.562239 c 0,0 -0.82683,-1.785938 -1.5875,-2.050521 -0.76068,-0.264583 -1.32292,-0.23151 -1.32292,-0.23151 z"
           id="path258" />
        <path
           style="fill:#504416;fill-opacity:1;stroke:none;stroke-width:0.264999"
           d="m 111.78381,61.23613 c 0,0 0.0992,1.190625 0.26458,1.719792 0.16537,0.529166 0.56224,0.264583 0.56224,0.264583 l 0.26458,-0.363802 -0.69453,-1.918229 z"
           id="path259" />
      </g>
      <g
         inkscape:groupmode="layer"
         id="layer32"
         inkscape:label="Knight"
         style="display:none">
        <path
           style="fill:#c8beb7;fill-opacity:1;stroke:none;stroke-width:0.264999"
           d="m 83.686748,43.226467 c 0,0 -1.762551,0.259883 -1.630259,1.185924 0.132291,0.926042 0.859895,2.050521 0.859895,2.050521 0,0 1.521354,-0.79375 2.711979,-0.79375 1.190625,0 2.116667,0.79375 2.116667,0.79375 0,0 1.084151,-0.96468 1.069682,-1.723116 -0.01447,-0.758436 -1.354328,-1.552076 -1.354328,-1.552076 l 0.948739,0.18308 0.198438,-1.256771 c 0,0 1.48662,2.015097 1.222036,2.742701 -0.264583,0.727604 -1.158525,2.33379 -1.158525,2.33379 0,0 0.14364,2.361876 -0.319381,2.891043 -0.463021,0.529166 -1.201973,0.879269 -3.186348,0.813124 -1.984375,-0.06615 -2.844271,-0.926042 -2.976563,-1.322917 -0.132291,-0.396875 -0.198437,-1.984375 -0.198437,-1.984375 0,0 -1.058333,-2.447396 -1.058333,-2.976562 0,-0.529167 1.828697,-2.442695 1.828697,-2.442695 l 0.06615,0.859896 z"
           id="path260"
           sodipodi:nodetypes="cscsczcccscssscsccc" />
        <path
           style="fill:#000000;fill-opacity:1;stroke:none;stroke-width:0.264999"
           d="m 82.883312,48.513432 c -0.124802,0.444928 0.0879,0.939364 0.283586,1.041853 0.655876,0.343506 1.005219,0.23232 1.303913,-0.01659 0.396875,-0.330729 0.578776,-1.53789 -0.330729,-1.653646 -0.875433,-0.111419 -1.131968,0.183458 -1.25677,0.628385 z"
           id="path261"
           sodipodi:nodetypes="zsssz" />
        <path
           style="fill:#000000;fill-opacity:1;stroke:none;stroke-width:0.264999"
           d="m 85.996354,48.487445 c -0.124802,0.444928 0.0879,0.939364 0.283586,1.041853 0.655876,0.343506 1.005219,0.23232 1.303913,-0.01659 0.396875,-0.330729 0.578776,-1.53789 -0.330729,-1.653646 -0.875433,-0.111419 -1.131968,0.183458 -1.25677,0.628385 z"
           id="path261-5"
           sodipodi:nodetypes="zsssz" />
      </g>
      <g
         inkscape:groupmode="layer"
         id="layer33"
         inkscape:label="Quirrel"
         transform="translate(42.656215,-16.089625)">
        <path
           style="fill:#c8b7b7;fill-opacity:1;stroke:none;stroke-width:0.264999"
           d="m 112.97816,38.025772 c -0.5235,-0.215217 -2.03459,-3.133737 -2.03459,-5.098168 0,-1.964431 0,-3.133736 0.88868,-4.209494 0.88867,-1.075759 4.20949,-2.759557 5.3788,-1.637025 1.1693,1.122532 2.8531,2.432151 2.15152,4.77076 -0.70159,2.338607 -3.60146,4.630444 -3.60146,4.630444 0,0 -2.25944,1.758701 -2.78295,1.543483 z"
           id="path262"
           sodipodi:nodetypes="zsssscz" />
        <path
           style="fill:#000000;fill-opacity:1;stroke:none;stroke-width:0.362574"
           d="m 114.94196,33.424676 c 0.49509,-0.512785 1.54386,-0.895918 2.08781,-0.191981 0.28887,0.373826 -0.44796,1.631851 -0.89592,1.887826 -0.44796,0.255977 -1.21588,0.799926 -1.56786,0.703937 -0.35196,-0.09599 -0.23197,-1.479866 -0.23197,-1.479866 0,0 0.11285,-0.407128 0.60794,-0.919916 z"
           id="path263"
           sodipodi:nodetypes="zssscz" />
        <path
           style="fill:#000000;fill-opacity:1;stroke:none;stroke-width:0.207399"
           d="m 112.01939,33.205387 c -0.162,-0.512785 -0.50516,-0.895918 -0.68315,-0.191981 -0.0945,0.373826 0.14658,1.631851 0.29315,1.887826 0.14658,0.255977 0.39785,0.799926 0.51301,0.703937 0.11517,-0.09599 0.0759,-1.479866 0.0759,-1.479866 0,0 -0.0369,-0.407128 -0.19891,-0.919916 z"
           id="path263-6"
           sodipodi:nodetypes="zssscz" />
        <path
           style="fill:#000000;fill-opacity:1;stroke:none;stroke-width:0.264999"
           d="m 115.52725,29.045516 c 0,0 2.19829,0.795126 2.47892,1.917657 0.28064,1.122532 0.93545,2.104747 0.93545,2.104747 l 0.28063,-0.608036 c 0,0 -0.65481,-1.403165 -1.07576,-2.057977 -0.42095,-0.654809 -2.61924,-1.356391 -2.61924,-1.356391 z"
           id="path265" />
        <path
           style="fill:#000000;fill-opacity:1;stroke:none;stroke-width:0.264999"
           d="m 114.3548,32.644246 c 0,0 0.26459,-0.446484 0.38034,-0.496093 0.11576,-0.04961 0.51263,-0.01654 0.38034,0.181901 -0.13229,0.198437 -0.79375,0.661458 -0.79375,0.661458 z"
           id="path264" />
        <path
           style="fill:#000000;fill-opacity:1;stroke:none;stroke-width:0.197698"
           d="m 112.2464,32.449752 c 0,0 -0.14726,-0.446484 -0.21168,-0.496093 -0.0644,-0.04961 -0.28531,-0.01654 -0.21169,0.181901 0.0736,0.198437 0.44178,0.661458 0.44178,0.661458 z"
           id="path264-5" />
      </g>
    </g>
  </g>
  <g
     inkscape:groupmode="layer"
     id="layer17"
     inkscape:label="Title"
     inkscape:export-filename="title.png"
     inkscape:export-xdpi="96"
     inkscape:export-ydpi="96"
     style="display:none"
     sodipodi:insensitive="true">
    <path
       style="fill:#800033;fill-opacity:1;stroke-width:0.264999"
       d="m 4.5836721,29.747097 -0.093544,4.677217 h 4.3965834 l -0.1870887,12.160763 4.5836722,2.61924 -0.374177,-15.341269 3.554684,0.09354 -0.187089,-2.899873 c 0,0 -0.841899,-0.280633 -1.777342,-1.028989 -0.935443,-0.748355 -9.9156987,-0.280633 -9.9156987,-0.280633 z"
       id="path35"
       inkscape:label="T" />
    <path
       style="fill:#800033;fill-opacity:1;stroke-width:0.264999"
       d="m 18.80241,29.934187 -0.187088,18.61532 h 2.80633 l -0.187089,-6.267471 c 0,0 1.777342,-2.432153 3.180507,-0.841898 1.403165,1.590254 1.028988,7.202913 1.028988,7.202913 0,0 2.525696,0.561266 2.525696,0.09355 0,-0.467723 0.654812,-7.951269 -0.935443,-9.26089 C 25.444058,38.16609 20.95393,39.007989 20.95393,39.007989 l 0.09354,-9.167344 z"
       id="path36"
       inkscape:label="h" />
    <path
       id="path37"
       style="fill:#800033;fill-opacity:1;stroke-width:0.264999"
       inkscape:label="e"
       d="m 34.149852,38.445714 c -0.807002,0.01407 -4.040377,0.270121 -4.122228,3.462321 -0.09354,3.648228 -0.280783,6.454366 1.403015,6.641455 1.683798,0.18709 5.987231,-1.964221 5.987231,-1.964221 l 0.09353,-2.151807 -4.490165,1.777669 c 0,0 -1.215968,-0.28105 -1.028878,-0.93586 0.187089,-0.654809 1.403015,-1.028878 1.403015,-1.028878 l 4.022494,-2.151289 -3.08715,-3.648356 c 0,0 -0.06558,-0.003 -0.180868,-10e-4 z m -0.812353,2.167826 1.124479,1.256771 -2.711979,1.322917 0.06615,-1.455209 z" />
    <path
       style="fill:#800033;fill-opacity:1;stroke-width:0.264999"
       d="m 59.681282,32.740516 c 0,0 -3.180506,-4.490129 -9.354434,-3.180508 -6.173924,1.309621 -5.425569,7.857725 -5.612659,11.22532 -0.187089,3.367596 0.748356,7.857723 4.303041,7.857723 3.554685,0 10.289875,-3.180506 10.289875,-3.180506 v -4.677217 c 0,0 -7.109369,4.115951 -8.418991,2.80633 -1.309618,-1.309622 -1.870884,-5.238483 -1.122532,-6.735191 0.748356,-1.496711 1.496711,-4.677217 2.806333,-3.928864 1.309618,0.748356 5.238482,2.245064 5.238482,2.245064 z"
       id="path38"
       inkscape:label="C" />
    <path
       id="path39"
       style="fill:#800033;fill-opacity:1;stroke-width:0.60767"
       d="m 65.768681,36.755834 c -1.614629,0.0063 -4.619106,2.409093 -4.619106,2.409093 l 0.606716,1.668471 4.095338,-1.365114 v 1.668474 l -4.398697,1.365111 0.122981,4.550288 1.431864,1.061844 6.029117,-1.213435 -0.455039,-8.797394 c 0,0 -1.061755,0.758396 -1.97183,-0.910075 -0.170639,-0.312839 -0.468738,-0.438707 -0.841344,-0.437263 z m 0.11374,5.792793 -0.01597,2.796372 -2.535207,0.598735 0.09352,-2.531789 z"
       sodipodi:nodetypes="ccccccccccscccccc"
       inkscape:label="a" />
    <path
       style="fill:#800033;fill-opacity:1;stroke-width:0.264999"
       d="M 71.654957,30.68254 71.467868,46.772166 74.08711,49.01723 73.712931,30.869629 Z"
       id="path40"
       inkscape:label="l" />
    <path
       style="fill:#800033;fill-opacity:1;stroke-width:0.264999"
       d="m 77.419772,30.030876 -0.187089,16.089626 2.619242,2.245064 -0.374179,-18.147601 z"
       id="path40-6"
       inkscape:label="l" />
    <g
       inkscape:groupmode="layer"
       id="g53"
       inkscape:label="Mask"
       style="display:inline"
       inkscape:export-filename="/home/michaloe/Pictures/masklarge.png"
       inkscape:export-xdpi="216.25073"
       inkscape:export-ydpi="216.25073"
       transform="matrix(3.0210727,0,0,3.0210727,-347.49985,-110.96285)">
      <path
         id="path41"
         style="display:inline;fill:#550022;stroke-width:0.251004"
         d="m 151.16123,50.292476 c 1e-5,2.378422 -1.70378,3.736618 -3.72039,3.736618 -2.01661,0 -3.6514,-1.647815 -3.6514,-3.680496 0,-0.860559 0.62761,-2.321318 0.9149,-2.533479 0.0233,-0.604269 -0.25998,-0.635528 -0.38509,-1.034252 -0.0802,-0.255435 -0.92492,-1.181631 -0.89661,-1.959068 0.3441,0.45034 1.28565,1.239664 1.58228,1.441903 0.5404,0.368435 0.93406,0.547281 1.0494,0.475046 0.0112,-0.5859 0.19345,-1.942339 0.42418,-1.831142 0.2595,0.125066 0.58855,1.760497 0.96239,1.760497 0.4031,0 0.77175,-0.206702 0.92207,-0.558344 0.0621,-0.145273 0.22594,-0.610047 0.22123,-1.085287 -0.004,-0.451948 -0.17758,-0.918771 -0.12038,-0.924209 0.0651,-0.0062 0.86664,1.047946 0.88573,1.500741 0.0196,0.465403 -0.0849,1.182988 -0.0181,1.12978 0.13307,-0.106063 0.61971,-0.463476 0.8773,-0.624254 0.37158,-0.231928 0.75384,-1.183632 0.989,-1.196537 -0.20774,0.159306 -0.0574,1.196393 -0.29826,1.485133 -0.076,0.09108 -0.50252,0.394574 -0.53955,0.814441 -0.0112,0.126505 -0.0374,0.389696 0.10359,0.54657 0.2974,0.330741 0.69776,0.923093 0.69777,2.536339 z"
         sodipodi:nodetypes="ssscscscsssssssscsscss" />
      <path
         style="display:inline;fill:#800033;fill-opacity:1;stroke-width:0.264999;stroke-dasharray:none"
         d="m 146.14493,49.950874 c 0,1.196769 -1.47099,1.728145 -1.47099,1.728145 0,0 2.10873,0.349745 2.58193,-1.254961 0.47319,-1.604706 2.69509,-1.738432 2.69509,-1.738432 0,0 -2.52594,0.08756 -3.24849,-0.03233 -0.72255,-0.119893 -0.93172,-0.370651 -1.67267,-0.601973 0.21768,0.248903 0.76053,1.039316 1.11513,1.899554 z"
         id="path42"
         sodipodi:nodetypes="sccczcss" />
      <ellipse
         style="display:inline;fill:#800033;fill-opacity:1;stroke-width:0.264999;stroke-dasharray:none"
         id="ellipse42"
         cx="145.35327"
         cy="49.824886"
         rx="0.61826509"
         ry="0.62553877" />
      <ellipse
         style="display:inline;fill:#800033;fill-opacity:1;stroke-width:0.309622;stroke-dasharray:none"
         id="ellipse43"
         cx="149.47745"
         cy="50.246765"
         rx="0.9164871"
         ry="0.90193963" />
      <ellipse
         style="display:inline;fill:#550022;fill-opacity:1;stroke-width:0.264999;stroke-dasharray:none"
         id="ellipse44"
         cx="145.45056"
         cy="49.827435"
         rx="0.46803913"
         ry="0.4423227" />
      <ellipse
         style="display:inline;fill:#2b0011;fill-opacity:1;stroke-width:0.52338;stroke-dasharray:none"
         id="ellipse45"
         cx="145.48215"
         cy="49.826054"
         rx="0.34257308"
         ry="0.43977168" />
      <ellipse
         style="display:inline;fill:#2b0011;fill-opacity:1;stroke-width:0.415195;stroke-dasharray:none"
         id="ellipse46"
         cx="149.26109"
         cy="50.266281"
         rx="0.16458519"
         ry="0.5760482" />
      <ellipse
         style="display:inline;fill:#550022;fill-opacity:1;stroke-width:0.264999;stroke-dasharray:none"
         id="ellipse47"
         cx="149.30064"
         cy="50.245377"
         rx="0.61719447"
         ry="0.64291096" />
      <ellipse
         style="display:inline;fill:#2b0011;fill-opacity:1;stroke-width:0.684572;stroke-dasharray:none"
         id="ellipse48"
         ry="0.61816555"
         rx="0.41694674"
         cy="50.239239"
         cx="149.21428" />
      <path
         style="fill:#2b0011;fill-opacity:1;stroke-width:0.264999;stroke-dasharray:none"
         d="m 151.0486,48.792024 c 0,0 0.36905,1.789974 -0.0873,2.953123 -0.88503,2.255779 -2.95312,2.240303 -2.95312,2.240303 0,0 1.51828,-0.702309 2.22809,-2.388543 0.70982,-1.686234 0.81233,-2.804883 0.81233,-2.804883 z"
         id="path48"
         sodipodi:nodetypes="csczc" />
      <path
         style="fill:#2b0011;fill-opacity:1;stroke-width:0.369651;stroke-dasharray:none"
         d="m 143.69409,45.325826 c 0,0 0.64776,0.523193 0.89234,1.133373 0.24457,0.610179 0.57696,0.317649 0.66704,1.168724 -0.30748,-0.212992 -0.46363,-0.183787 -0.9373,-1.100904 -0.47368,-0.917114 -0.33365,-0.73539 -0.62208,-1.201193 z"
         id="path49"
         sodipodi:nodetypes="czczc" />
      <path
         style="display:inline;fill:#2b0011;fill-opacity:1;stroke-width:0.296331;stroke-dasharray:none"
         d="m 144.18217,48.681147 c 0,0 -0.87294,0.925903 -0.14799,2.994269 0.83108,2.371196 3.26254,2.355737 3.26254,2.355737 0,0 -1.80781,-0.540005 -2.69539,-2.226239 -0.8876,-1.686234 -0.41916,-3.123767 -0.41916,-3.123767 z"
         id="path50"
         sodipodi:nodetypes="csczc" />
      <path
         style="fill:#2b0011;fill-opacity:1;stroke-width:0.264999;stroke-dasharray:none"
         d="m 146.05884,52.312499 c 0,0 1.23653,0.436422 2.25485,-0.101833 1.01832,-0.538255 1.1347,-0.654635 1.1347,-0.654635 0,0 -0.50916,1.396553 -1.80388,1.469289 -1.29472,0.07274 -1.58567,-0.712821 -1.58567,-0.712821 z"
         id="path51" />
      <path
         style="fill:#2b0011;fill-opacity:1;stroke-width:0.369651;stroke-dasharray:none"
         d="m 147.24521,46.929176 c 0,0 -1.26098,0.606909 -1.34103,1.203531 -0.0802,0.596619 0.76059,1.800148 0.76059,1.800148 0,0 0.84132,-0.879807 1.0622,-1.650476 0.22087,-0.770668 -0.48168,-1.353203 -0.48168,-1.353203 z"
         id="path52"
         sodipodi:nodetypes="ccczcc" />
      <path
         style="display:inline;fill:#2b0011;fill-opacity:1;stroke-width:0.369651;stroke-dasharray:none"
         d="m 150.98898,45.357257 c 0,0 -0.1825,0.812415 -0.62144,1.301775 -0.43893,0.489351 -0.0295,0.657963 -0.75284,1.115384 0.0549,-0.369991 -0.0404,-0.497091 0.57242,-1.327724 0.61279,-0.830639 0.5118,-0.624644 0.80186,-1.089435 z"
         id="path53"
         sodipodi:nodetypes="czczc" />
    </g>
  </g>
</svg>
